<svg xmlns="http://www.w3.org/2000/svg" viewBox="0 0 23.5 23.5"><defs><style>.cls-1{fill:none;stroke:#fff;stroke-miterlimit:10;}.cls-2{fill:#fff;fill-rule:evenodd;}</style></defs><title>Asset 52</title><g id="Layer_2" data-name="Layer 2"><g id="Layer_1-2" data-name="Layer 1"><path class="cls-1" d="M11.75.5A11.25,11.25,0,1,1,.5,11.75,11.25,11.25,0,0,1,11.75.5Z"/><path class="cls-2" d="M14.28,6.95V8.49h-.92a.86.86,0,0,0-.68.21,1,1,0,0,0-.18.63v1.11h1.72L14,12.18H12.51v4.45H10.71V12.18H9.22V10.44h1.49V9.17a2.26,2.26,0,0,1,.61-1.69,2.21,2.21,0,0,1,1.62-.6,9.67,9.67,0,0,1,1.34.07Z"/></g></g></svg>