<svg xmlns="http://www.w3.org/2000/svg" viewBox="0 0 23.5 23.5"><defs><style>.cls-1{fill:none;stroke:#fff;stroke-miterlimit:10;}.cls-2{fill:#fff;fill-rule:evenodd;}</style></defs><title>Asset 56</title><g id="Layer_2" data-name="Layer 2"><g id="Layer_1-2" data-name="Layer 1"><path class="cls-1" d="M11.75.5A11.25,11.25,0,1,1,.5,11.75,11.25,11.25,0,0,1,11.75.5Z"/><path class="cls-2" d="M17.38,11.89a5.62,5.62,0,0,1-3.84,5.34.32.32,0,0,1-.29-.05.3.3,0,0,1-.09-.22V15.41a1.3,1.3,0,0,0-.38-1,4.93,4.93,0,0,0,.75-.13,3,3,0,0,0,.69-.29,2.06,2.06,0,0,0,.59-.49,2.28,2.28,0,0,0,.39-.77,3.69,3.69,0,0,0,.15-1.1,2.14,2.14,0,0,0-.58-1.51,2,2,0,0,0-.06-1.49,1,1,0,0,0-.59.08,3.88,3.88,0,0,0-.67.32l-.28.18a5.27,5.27,0,0,0-2.81,0L10,9a4.25,4.25,0,0,0-.61-.28,1,1,0,0,0-.63-.1,2,2,0,0,0-.05,1.49,2.14,2.14,0,0,0-.58,1.51,3.66,3.66,0,0,0,.15,1.1,2.37,2.37,0,0,0,.38.77,2,2,0,0,0,.59.49,3,3,0,0,0,.69.29,4.92,4.92,0,0,0,.75.13,1.19,1.19,0,0,0-.36.76,1.52,1.52,0,0,1-.33.11,2.1,2.1,0,0,1-.42,0,.86.86,0,0,1-.48-.16,1.29,1.29,0,0,1-.41-.46,1.2,1.2,0,0,0-.35-.38A1.08,1.08,0,0,0,8,14.1l-.15,0a.48.48,0,0,0-.21,0s-.05,0,0,.08a.44.44,0,0,0,.07.1l.1.09.05,0a.88.88,0,0,1,.32.28,1.82,1.82,0,0,1,.23.37l.07.17a.93.93,0,0,0,.32.45,1.14,1.14,0,0,0,.49.22,3,3,0,0,0,.51.05,2.16,2.16,0,0,0,.41,0l.17,0c0,.19,0,.4,0,.65s0,.38,0,.4a.29.29,0,0,1-.1.22.33.33,0,0,1-.29.05,5.63,5.63,0,0,1-3.85-5.34,5.5,5.5,0,0,1,.76-2.82,5.59,5.59,0,0,1,2-2,5.66,5.66,0,0,1,5.65,0,5.6,5.6,0,0,1,2,2,5.51,5.51,0,0,1,.75,2.82Z"/></g></g></svg>