<svg xmlns="http://www.w3.org/2000/svg" viewBox="0 0 23.5 23.5"><defs><style>.cls-1{fill:none;stroke:#fff;stroke-miterlimit:10;}.cls-2{fill:#fff;fill-rule:evenodd;}</style></defs><title>Asset 54</title><g id="Layer_2" data-name="Layer 2"><g id="Layer_1-2" data-name="Layer 1"><path class="cls-1" d="M11.75.5A11.25,11.25,0,1,1,.5,11.75,11.25,11.25,0,0,1,11.75.5Z"/><path class="cls-2" d="M14.1,8.17l-.79,2.27.81.14A21.4,21.4,0,0,0,15.26,7c0-.26-.09-.39-.26-.39s-.56.52-.9,1.55ZM12,12.92l.23.61a3.25,3.25,0,0,1,.49-.46l-.23,0-.27,0L12,12.92ZM10,6.73a16,16,0,0,0,1.1,3.6.7.7,0,0,1,.34-.07l.52,0-.84-2.42q-.52-1.52-.85-1.52a.22.22,0,0,0-.2.12.51.51,0,0,0-.07.26ZM9.47,12a1.93,1.93,0,0,0,.36.82,6.72,6.72,0,0,0,.81,1.06c.3.32.53.48.69.48a.23.23,0,0,0,.18-.09.28.28,0,0,0,.08-.19,2.56,2.56,0,0,0-.22-.7c-.06-.15-.13-.31-.22-.5s-.2-.39-.33-.61a2.61,2.61,0,0,0-.43-.56.65.65,0,0,0-.43-.22.48.48,0,0,0-.31.19.52.52,0,0,0-.18.32ZM8.38,14.28a2.05,2.05,0,0,0,.17.72,3.33,3.33,0,0,0,1.27,1.57A3.58,3.58,0,0,0,14.4,16a4.24,4.24,0,0,0,1-2.95c0-.2,0-.35,0-.46a2,2,0,0,0-.08-.43.8.8,0,0,0-.21-.39,3.13,3.13,0,0,0-1.46-.52A11.33,11.33,0,0,0,11.83,11a.52.52,0,0,0-.34.08c-.05,0-.08.1-.08.24a.63.63,0,0,0,.15.41,1,1,0,0,0,.38.28,3,3,0,0,0,.54.16,3.55,3.55,0,0,0,.6.08l.59,0h.64a.35.35,0,0,1,.28.13.74.74,0,0,1,.13.38,2,2,0,0,1-.66.37,2.57,2.57,0,0,0-.64.32,3,3,0,0,0-.75.79,1.71,1.71,0,0,0-.31.95,2.18,2.18,0,0,0,.13.61,2.19,2.19,0,0,1,.13.6l0,.08a.54.54,0,0,0,0,.1q-.95-.07-1-1.49h-.28a.53.53,0,0,1,0,.14.8.8,0,0,1-.28.62.94.94,0,0,1-.65.25,1.73,1.73,0,0,1-1.15-.54,1.52,1.52,0,0,1-.58-1.1.65.65,0,0,1,.23-.46l.41.52q.53.72.92.72a.37.37,0,0,0,.18-.06.17.17,0,0,0,.1-.14,2.55,2.55,0,0,0-.6-1q-.6-.76-.81-.76a.55.55,0,0,0-.48.31,1.19,1.19,0,0,0-.19.63Zm-.79.06a2,2,0,0,1,.29-1.12,1.61,1.61,0,0,1,.94-.61,2.43,2.43,0,0,1-.19-.72A1.22,1.22,0,0,1,9.06,11a1.22,1.22,0,0,1,.84-.42,1.46,1.46,0,0,1,.48.1A18.58,18.58,0,0,1,9.26,6.81a1.38,1.38,0,0,1,.28-.9,1,1,0,0,1,.82-.35q.9,0,2.24,4l.05.16.2-.55.3-.82q.14-.38.37-.88A7.93,7.93,0,0,1,14,6.64a2.75,2.75,0,0,1,.49-.6A.8.8,0,0,1,15,5.79a1,1,0,0,1,.77.34,1.27,1.27,0,0,1,.28.84,17.06,17.06,0,0,1-1.1,3.8,1.8,1.8,0,0,1,.69.32,1.26,1.26,0,0,1,.4.54,2.8,2.8,0,0,1,.18.65,5.22,5.22,0,0,1,0,.76A5.66,5.66,0,0,1,16,15,4.73,4.73,0,0,1,15,16.52a4.18,4.18,0,0,1-1.46,1,4.74,4.74,0,0,1-1.92.38,4.34,4.34,0,0,1-1.54-.29,4.21,4.21,0,0,1-1.78-1.32,3.1,3.1,0,0,1-.75-2Z"/></g></g></svg>