<svg width="19" height="19" viewBox="0 0 19 19" fill="none" xmlns="http://www.w3.org/2000/svg">
<path fill-rule="evenodd" clip-rule="evenodd" d="M8.55 1.9C4.87731 1.9 1.9 4.87731 1.9 8.55C1.9 12.2227 4.87731 15.2 8.55 15.2C12.2227 15.2 15.2 12.2227 15.2 8.55C15.2 4.87731 12.2227 1.9 8.55 1.9ZM0 8.55C0 3.82797 3.82797 0 8.55 0C13.272 0 17.1 3.82797 17.1 8.55C17.1 13.272 13.272 17.1 8.55 17.1C3.82797 17.1 0 13.272 0 8.55Z" fill="#4A8F01"/>
<path fill-rule="evenodd" clip-rule="evenodd" d="M13.2457 13.2457C13.6167 12.8748 14.2183 12.8748 14.5893 13.2457L18.7218 17.3782C19.0928 17.7492 19.0928 18.3508 18.7218 18.7218C18.3508 19.0928 17.7492 19.0928 17.3782 18.7218L13.2457 14.5893C12.8748 14.2183 12.8748 13.6167 13.2457 13.2457Z" fill="#4A8F01"/>
</svg>
