<svg xmlns="http://www.w3.org/2000/svg" width="36" height="36" viewBox="0 0 36 36">
    <g fill="none" fill-rule="nonzero" opacity=".3">
        <rect width="35.206" height="35.206" x=".397" y=".397" stroke="#FFF" stroke-width=".794" rx="17.603"/>
        <g fill="#FFF">
            <path d="M14.03 24.353h-3.971V14.029h3.97zM12.033 13.235h-.023c-1.184 0-1.951-.882-1.951-1.985 0-1.128.79-1.985 1.997-1.985 1.208 0 1.95.857 1.973 1.985 0 1.103-.765 1.985-1.996 1.985zM26.735 24.353h-3.641V18.54c0-1.46-.527-2.456-1.845-2.456-1.006 0-1.605.671-1.868 1.321-.096.232-.12.555-.12.88v6.067h-3.643s.048-9.844 0-10.863h3.642v1.54c.484-.739 1.348-1.795 3.282-1.795 2.397 0 4.193 1.552 4.193 4.889v6.229z"/>
        </g>
    </g>
</svg>
