<svg xmlns="http://www.w3.org/2000/svg" width="36" height="36" viewBox="0 0 36 36">
    <g fill="none" fill-rule="nonzero" opacity=".3">
        <rect width="35.206" height="35.206" x=".397" y=".397" stroke="#FFF" stroke-width=".794" rx="17.603"/>
        <path fill="#FFF" d="M27.152 10.67L23.98 25.93a.508.508 0 0 1-.795.306l-4.33-3.144a.716.716 0 0 0-.874.025l-2.4 1.957a.507.507 0 0 1-.806-.243l-1.667-5.361L8.8 17.862a.508.508 0 0 1-.005-.95l17.676-6.818a.508.508 0 0 1 .68.577zM22.85 13.26l-8.418 5.184a.848.848 0 0 0-.37.954l.91 3.198c.065.226.394.203.425-.031l.237-1.754a1.44 1.44 0 0 1 .446-.862l6.947-6.457c.13-.12-.026-.325-.177-.232z"/>
    </g>
</svg>
