<svg width="25" height="25" viewBox="0 0 25 25" fill="none" xmlns="http://www.w3.org/2000/svg">
<path fill-rule="evenodd" clip-rule="evenodd" d="M11.25 2.5C6.41751 2.5 2.5 6.41751 2.5 11.25C2.5 16.0825 6.41751 20 11.25 20C16.0825 20 20 16.0825 20 11.25C20 6.41751 16.0825 2.5 11.25 2.5ZM0 11.25C0 5.0368 5.0368 0 11.25 0C17.4632 0 22.5 5.0368 22.5 11.25C22.5 17.4632 17.4632 22.5 11.25 22.5C5.0368 22.5 0 17.4632 0 11.25Z" fill="#909090"/>
<path fill-rule="evenodd" clip-rule="evenodd" d="M17.4286 17.4286C17.9168 16.9405 18.7082 16.9405 19.1964 17.4286L24.6339 22.8661C25.122 23.3543 25.122 24.1457 24.6339 24.6339C24.1457 25.122 23.3543 25.122 22.8661 24.6339L17.4286 19.1964C16.9405 18.7082 16.9405 17.9168 17.4286 17.4286Z" fill="#909090"/>
<path d="M7 10H16V12H7V10Z" fill="#909090"/>
<path d="M12.5 6.5V15.5H10.5V6.5H12.5Z" fill="#909090"/>
</svg>
