<svg xmlns="http://www.w3.org/2000/svg" viewBox="0 0 12.25 12.13"><defs><style>.cls-1,.cls-2{fill:none;stroke:#1798d6;}.cls-1{stroke-miterlimit:10;}.cls-2{stroke-linejoin:round;}</style></defs><title>Asset 47</title><g id="Layer_2" data-name="Layer 2"><g id="Layer_1-2" data-name="Layer 1"><path class="cls-1" d="M.5,3.47V10a1.59,1.59,0,0,0,1.59,1.59h8.07A1.59,1.59,0,0,0,11.75,10V3.47a1.59,1.59,0,0,0-1.59-1.59H2.09A1.59,1.59,0,0,0,.5,3.47Z"/><line class="cls-2" x1="3.5" x2="3.5" y2="3"/><line class="cls-2" x1="8.75" x2="8.75" y2="3"/><polygon class="cls-1" points="2.75 4.88 2.75 9.38 9.5 9.38 9.5 4.88 2.75 4.88 2.75 4.88"/><polygon class="cls-1" points="5 4.88 5 9.38 7.25 9.38 7.25 4.88 5 4.88 5 4.88"/><polygon class="cls-1" points="2.75 6.38 2.75 7.88 9.5 7.88 9.5 6.38 2.75 6.38 2.75 6.38"/></g></g></svg>