<svg xmlns="http://www.w3.org/2000/svg" viewBox="0 0 24.3 22"><defs><style>.cls-1{fill:none;stroke:#fff;stroke-linejoin:round;}</style></defs><title>Asset 48</title><g id="Layer_2" data-name="Layer 2"><g id="Layer_1-2" data-name="Layer 1"><path class="cls-1" d="M8,16.28A5.63,5.63,0,0,0,12.15,18a5.64,5.64,0,0,0,4.13-1.72A5.63,5.63,0,0,0,18,12.15,5.63,5.63,0,0,0,16.28,8,5.63,5.63,0,0,0,12.15,6.3,5.63,5.63,0,0,0,8,8,5.64,5.64,0,0,0,6.3,12.15,5.63,5.63,0,0,0,8,16.28ZM8.65.5h7l2.13,2.3H21.5a2.17,2.17,0,0,1,1.61.71,2.3,2.3,0,0,1,.68,1.64v14a2.3,2.3,0,0,1-.68,1.64,2.17,2.17,0,0,1-1.61.71H2.8a2.17,2.17,0,0,1-1.61-.71A2.3,2.3,0,0,1,.5,19.15v-14a2.3,2.3,0,0,1,.68-1.64A2.17,2.17,0,0,1,2.8,2.8H6.52L8.65.5Z"/></g></g></svg>