<svg xmlns="http://www.w3.org/2000/svg" width="82" height="83" viewBox="0 0 82 83">
    <defs>
        <linearGradient id="a" x1="0%" x2="102%" y1="0%" y2="101%">
            <stop offset="0%" stop-color="#89F7FE"/>
            <stop offset="100%" stop-color="#66A6FF"/>
        </linearGradient>
        <linearGradient id="b" x1="50%" x2="50%" y1="255.904%" y2="-261.903%">
            <stop offset="0%" stop-color="#0C3483"/>
            <stop offset="100%" stop-color="#6B8CCE"/>
        </linearGradient>
    </defs>
    <g fill="none" fill-rule="evenodd">
        <circle cx="40" cy="40" r="12" fill="url(#a)"/>
        <circle cx="35" cy="76" r="7" fill="url(#a)"/>
        <circle cx="75" cy="39" r="7" fill="url(#a)"/>
        <circle cx="49.5" cy="4.5" r="3.5" fill="url(#a)"/>
        <circle cx="19.5" cy="8.5" r="3.5" fill="url(#a)"/>
        <circle cx="16.5" cy="27.5" r="3.5" fill="url(#a)"/>
        <path fill="url(#b)" fill-rule="nonzero" d="M43.871 33.786v-2.818h-2.58v2.58H38.71v-2.58h-2.581v2.58h-2.58v12.904h2.58v2.58h2.58v-2.58h2.581v2.58h2.581v-2.818c1.498-.534 2.58-1.953 2.58-3.633 0-.991-.374-1.896-.988-2.581.614-.685.989-1.59.989-2.58 0-1.68-1.083-3.1-2.581-3.634zm-1.29 10.085h-6.452v-2.58h6.452c.712 0 1.29.579 1.29 1.29 0 .71-.578 1.29-1.29 1.29zm0-5.161h-6.452v-2.581h6.452c.712 0 1.29.58 1.29 1.29 0 .711-.578 1.29-1.29 1.29z"/>
        <path fill="url(#b)" fill-rule="nonzero" d="M40 28.387c2.671 0 5.281.932 7.346 2.622l1.636-1.997A14.22 14.22 0 0 0 40 25.806c-7.826 0-14.194 6.368-14.194 14.194 0 3.266 1.14 6.455 3.207 8.982l1.996-1.635A11.635 11.635 0 0 1 28.387 40c0-6.403 5.21-11.613 11.613-11.613zM48.991 32.653A11.635 11.635 0 0 1 51.613 40c0 6.403-5.21 11.613-11.613 11.613-2.671 0-5.281-.932-7.346-2.622l-1.636 1.997A14.22 14.22 0 0 0 40 54.194c7.826 0 14.194-6.368 14.194-14.194 0-3.266-1.14-6.455-3.207-8.982l-1.996 1.635z"/>
        <path fill="url(#b)" fill-rule="nonzero" d="M75.111 33.575l-4.505-16.219a3.865 3.865 0 0 0 1.652-3.162 3.876 3.876 0 0 0-3.87-3.871c-1.923 0-3.51 1.412-3.81 3.251l-7.044 1.28c-.668-1.159-1.907-1.95-3.34-1.95-.052 0-.101.012-.153.015l-2.463-6.156a3.843 3.843 0 0 0 1.325-2.892A3.876 3.876 0 0 0 49.033 0a3.876 3.876 0 0 0-3.784 3.063L24.135 5.817a5.163 5.163 0 0 0-4.78-3.236 5.166 5.166 0 0 0-5.161 5.16c0 .696.141 1.358.392 1.965l-8.572 6.43a3.846 3.846 0 0 0-2.143-.652A3.876 3.876 0 0 0 0 19.354c0 1.68 1.083 3.1 2.58 3.634v27.573C1.084 51.094 0 52.514 0 54.194a3.876 3.876 0 0 0 3.871 3.87c1.174 0 2.214-.536 2.925-1.363l8.747 3.364c-.023.193-.06.381-.06.58a5.166 5.166 0 0 0 5.162 5.161c.875 0 1.687-.238 2.41-.624l8.38 9.143a3.815 3.815 0 0 0-.467 1.804A3.876 3.876 0 0 0 34.838 80c1.68 0 3.1-1.083 3.634-2.58h10.799c.534 1.497 1.954 2.58 3.634 2.58a3.876 3.876 0 0 0 3.87-3.871c0-.654-.178-1.262-.467-1.804l9.275-10.119c.465.2.977.31 1.514.31a3.876 3.876 0 0 0 3.87-3.87c0-1.212-.57-2.283-1.446-2.993l4.88-13.826c.147.012.288.044.438.044A5.166 5.166 0 0 0 80 38.71c0-2.753-2.172-4.99-4.889-5.135zm-6.724-20.672c.712 0 1.29.58 1.29 1.29 0 .712-.578 1.29-1.29 1.29-.712 0-1.29-.578-1.29-1.29 0-.71.578-1.29 1.29-1.29zm-10.384 4.49l7.043-1.28a3.85 3.85 0 0 0 3.07 1.924l4.46 16.057c-.07.035-.137.074-.204.111l-14.75-15.672a3.85 3.85 0 0 0 .38-1.14zm12.48 18.573a5.09 5.09 0 0 0-.684 1.655l-10.542.422c-.578-5.735-3.678-10.726-8.16-13.877l2.26-3.616c.269.058.549.095.837.095a3.83 3.83 0 0 0 1.557-.333l14.733 15.654zM56.775 40c0 9.249-7.525 16.774-16.774 16.774S23.226 49.25 23.226 40 30.75 23.226 40 23.226 56.774 30.75 56.774 40zm-2.58-24.516c.712 0 1.29.58 1.29 1.29 0 .711-.578 1.29-1.29 1.29-.713 0-1.29-.579-1.29-1.29 0-.71.577-1.29 1.29-1.29zM49.032 2.58c.713 0 1.29.579 1.29 1.29 0 .71-.577 1.29-1.29 1.29-.712 0-1.29-.58-1.29-1.29 0-.711.578-1.29 1.29-1.29zm-24.58 5.798L45.6 5.621c.64 1.253 1.93 2.12 3.432 2.12.052 0 .1-.012.153-.015l2.461 6.157a3.846 3.846 0 0 0-1.323 2.891c0 .909.327 1.734.852 2.395l-2.285 3.657a19.232 19.232 0 0 0-8.89-2.18c-3.377 0-6.552.873-9.319 2.4l-7.555-11.805a5.13 5.13 0 0 0 1.327-2.862zm4.068 16.074a19.47 19.47 0 0 0-4.757 5.049l-3.182-1.768c.034-.208.064-.418.064-.637 0-1.498-.864-2.786-2.112-3.429l1.444-10.828c.335-.041.66-.112.973-.215l7.57 11.828zM19.355 5.16a2.583 2.583 0 0 1 2.58 2.58 2.583 2.583 0 0 1-2.58 2.582 2.583 2.583 0 0 1-2.58-2.581 2.583 2.583 0 0 1 2.58-2.58zm-1.29 21.936c0 .71-.579 1.29-1.29 1.29-.713 0-1.291-.58-1.291-1.29 0-.711.578-1.29 1.29-1.29.712 0 1.29.579 1.29 1.29zm-1.914-15.34c.384.306.803.572 1.264.76L15.977 23.31a3.831 3.831 0 0 0-1.65.813l-6.662-3.998a3.88 3.88 0 0 0 .077-.77c0-.401-.079-.782-.194-1.147l8.603-6.452zm-12.28 6.308c.712 0 1.29.579 1.29 1.29 0 .71-.578 1.29-1.29 1.29-.712 0-1.29-.58-1.29-1.29 0-.711.578-1.29 1.29-1.29zm0 37.419c-.712 0-1.29-.58-1.29-1.29 0-.711.578-1.29 1.29-1.29.712 0 1.29.579 1.29 1.29 0 .71-.578 1.29-1.29 1.29zm1.29-32.496a3.827 3.827 0 0 0 1.158-.66l6.662 3.997a3.855 3.855 0 0 0 1.06 3.51L5.161 48.48V22.988zm11.296 34.664l-8.725-3.357c0-.034.01-.067.01-.101a3.855 3.855 0 0 0-1.138-2.739l9.775-20.527c.132.014.26.04.395.04.98 0 1.866-.378 2.549-.98l3.19 1.773A19.184 19.184 0 0 0 20.646 40c0 5.097 1.995 9.725 5.226 13.185l-2.766 2.95a5.092 5.092 0 0 0-2.46-.651c-1.728 0-3.251.86-4.188 2.168zm4.188 5.574a2.583 2.583 0 0 1-2.58-2.58 2.583 2.583 0 0 1 2.58-2.581 2.583 2.583 0 0 1 2.58 2.58 2.583 2.583 0 0 1-2.58 2.58zM34.84 77.419c-.713 0-1.29-.579-1.29-1.29 0-.71.577-1.29 1.29-1.29.712 0 1.29.58 1.29 1.29 0 .711-.578 1.29-1.29 1.29zm14.43-2.58H38.472c-.533-1.498-1.952-2.58-3.632-2.58-.537 0-1.05.11-1.514.309l-8.357-9.118c.526-.809.838-1.77.838-2.805a5.12 5.12 0 0 0-.811-2.753l2.746-2.93A19.256 19.256 0 0 0 40 59.356a19.27 19.27 0 0 0 5.09-.702l5.097 14.724c-.412.405-.72.907-.917 1.462zm3.634 2.58c-.712 0-1.29-.579-1.29-1.29 0-.71.578-1.29 1.29-1.29.712 0 1.29.58 1.29 1.29 0 .711-.578 1.29-1.29 1.29zm1.515-4.851a3.853 3.853 0 0 0-1.515-.31c-.122 0-.238.025-.358.036l-5.008-14.467a19.437 19.437 0 0 0 7.313-5.435l8.61 6.97a3.845 3.845 0 0 0-.234 1.283c0 .654.178 1.262.467 1.804l-9.275 10.119zm12.679-10.633c-.712 0-1.29-.579-1.29-1.29 0-.71.578-1.29 1.29-1.29.712 0 1.29.58 1.29 1.29 0 .711-.578 1.29-1.29 1.29zm-.004-5.16c-.74 0-1.423.219-2.01.58l-8.723-7.06a19.214 19.214 0 0 0 2.963-9.674l10.598-.424a5.164 5.164 0 0 0 2.038 2.794l-4.866 13.783zm7.746-15.485a2.583 2.583 0 0 1-2.58-2.58 2.583 2.583 0 0 1 2.58-2.581 2.583 2.583 0 0 1 2.58 2.58 2.583 2.583 0 0 1-2.58 2.581z"/>
    </g>
</svg>
