<svg xmlns="http://www.w3.org/2000/svg" width="80" height="72" viewBox="0 0 80 72">
    <defs>
        <linearGradient id="a" x1="134.947%" x2="-5.489%" y1="67.436%" y2="11.095%">
            <stop offset="0%" stop-color="#7DE3F9"/>
            <stop offset="100%" stop-color="#47C3F1"/>
        </linearGradient>
        <linearGradient id="b" x1="50%" x2="50%" y1="-23.35%" y2="100%">
            <stop offset="0%" stop-color="#1C64B9"/>
            <stop offset="100%" stop-color="#0C3483"/>
        </linearGradient>
    </defs>
    <g fill="none" fill-rule="nonzero">
        <g fill="url(#a)" transform="translate(1.33 1.33)">
            <path d="M16.537 44.812c-6.124-2.498-13.113.44-15.612 6.562-2.499 6.122.44 13.11 6.564 15.608 6.123 2.498 13.113-.44 15.612-6.562.586-1.437.887-2.974.887-4.526a11.95 11.95 0 0 0-7.451-11.082zM65.235 43.922c-6.613 0-11.975 5.36-11.975 11.972 0 6.612 5.362 11.972 11.975 11.972 6.614 0 11.975-5.36 11.975-11.972.013-6.6-5.328-11.96-11.93-11.972h-.045zM38.624.023c-7.348 0-13.306 5.956-13.306 13.303 0 .186 0 .359.014.532.328 7.34 6.546 13.023 13.887 12.694 6.881-.308 12.39-5.815 12.697-12.694.014-.173.014-.346.014-.532C51.93 5.979 45.972.023 38.624.023z"/>
        </g>
        <g fill="url(#b)">
            <path d="M70.366 44.482a30.261 30.261 0 0 0-15.789-30.084C54.423 6.324 47.752-.097 39.676.058c-7.86.15-14.194 6.483-14.344 14.34A30.261 30.261 0 0 0 9.543 44.482C2.495 46.562-1.532 53.959.548 61.005c2.08 7.047 9.479 11.073 16.527 8.994 2.17-.64 4.14-1.822 5.725-3.435a30.476 30.476 0 0 0 34.31 0c5.15 5.24 13.574 5.314 18.816.165 5.241-5.15 5.315-13.572.164-18.812a13.307 13.307 0 0 0-5.724-3.435zM39.955 2.684c6.61.007 11.967 5.363 11.975 11.972 0 .15 0 .293-.012.48-.292 6.606-5.884 11.725-12.491 11.433a11.974 11.974 0 0 1-11.438-11.48c-.01-.14-.01-.283-.01-.433.008-6.609 5.365-11.965 11.976-11.972zM13.343 67.866C7.465 67.866 2.7 63.102 2.7 57.224c0-5.877 4.766-10.642 10.644-10.642 5.88 0 10.645 4.765 10.645 10.642-.007 5.875-4.769 10.636-10.645 10.642zm26.612 1.33a27.65 27.65 0 0 1-15.481-4.703c4.02-6.122 2.314-14.343-3.81-18.362a13.267 13.267 0 0 0-1.618-.907 21.14 21.14 0 0 1-.274-1.836l-2.648.266c.019.196.052.4.076.588a13.294 13.294 0 0 0-2.857-.32c-.399 0-.79.025-1.18.06-.089-.906-.15-1.815-.15-2.72a27.826 27.826 0 0 1 13.562-23.957 14.518 14.518 0 0 0 1.303 3.92c-.228.149-.463.282-.685.439l1.528 2.17c.181-.126.373-.233.558-.354 4.885 6.448 14.074 7.717 20.525 2.832a14.649 14.649 0 0 0 2.82-2.816c.352.231.718.441 1.052.691l1.597-2.128c-.4-.295-.805-.579-1.222-.851a14.425 14.425 0 0 0 1.291-3.903A27.826 27.826 0 0 1 67.896 41.26c0 .906-.06 1.815-.15 2.72a13.3 13.3 0 0 0-1.18-.06 13.226 13.226 0 0 0-3.072.373l-2.425-.312a17.26 17.26 0 0 1-.218 1.247 13.302 13.302 0 0 0-7.59 11.995c0 .208.02.411.03.617a21.37 21.37 0 0 1-1.484 1.102l1.481 2.21c.161-.107.318-.227.478-.34a13.264 13.264 0 0 0 1.67 3.68 27.651 27.651 0 0 1-15.481 4.703zm26.61-1.33c-5.878 0-10.644-4.764-10.644-10.642 0-5.877 4.766-10.642 10.645-10.642S77.21 51.347 77.21 57.224c-.006 5.875-4.768 10.636-10.644 10.642z"/>
            <path d="M67.896 62.545a5.273 5.273 0 0 1-3.483-1.33h4.814v-2.66h-6.464a5.244 5.244 0 0 1-.189-1.33h6.653v-2.661h-5.913a5.299 5.299 0 0 1 6.653-2.244l1.036-2.45a7.984 7.984 0 0 0-10.624 4.694h-1.797v2.66h1.331c.003.446.043.891.12 1.33h-1.45v2.661h2.41a7.974 7.974 0 0 0 10.097 3.326l-1.065-2.437a5.3 5.3 0 0 1-2.129.441zM13.343 53.233a1.25 1.25 0 0 1 1.147 1.33h2.661a3.981 3.981 0 0 0-2.477-3.724v-1.596h-2.661v1.596a3.981 3.981 0 0 0-2.478 3.725 3.907 3.907 0 0 0 3.808 3.99 1.345 1.345 0 0 1 0 2.661 1.25 1.25 0 0 1-1.147-1.33h-2.66a3.981 3.981 0 0 0 2.477 3.724v1.597h2.66v-1.597a3.981 3.981 0 0 0 2.478-3.724 3.907 3.907 0 0 0-3.808-3.991 1.345 1.345 0 0 1 0-2.66zM5.36 55.894h2.661v2.66H5.36zM18.666 55.894h2.66v2.66h-2.66zM34.632 23.968h2.661v-2.66h1.331v2.66h2.661v-2.66h1.33a3.98 3.98 0 0 0 3.914-4.767c-.017-.088-.05-.169-.073-.255a4.07 4.07 0 0 0-.147-.47c-.038-.096-.091-.184-.133-.275a4.114 4.114 0 0 0-.207-.385c-.059-.089-.127-.17-.192-.255-.065-.085-.117-.17-.186-.248.072-.078.126-.169.191-.252.066-.084.134-.167.192-.256.08-.126.151-.257.214-.392.046-.09.097-.178.133-.273a4.01 4.01 0 0 0 .145-.47c.022-.085.054-.164.07-.25.049-.253.072-.508.071-.764a3.991 3.991 0 0 0-3.991-3.991h-1.33v-2.66h-2.662v2.66h-1.33v-2.66h-2.662v2.66h-1.33v13.302h1.33v2.66zm8.906-5.703a1.277 1.277 0 0 1-.922.382h-6.653v-2.66h6.653c.735 0 1.33.595 1.33 1.33a1.3 1.3 0 0 1-.408.948zm.408-6.27a1.3 1.3 0 0 1-.408.949 1.277 1.277 0 0 1-.922.382h-6.653v-2.66h6.653c.735 0 1.33.595 1.33 1.33zM58.35 25.926a23.816 23.816 0 0 0-1.927-2.051l-1.832 1.933c.607.572 1.18 1.18 1.714 1.822l2.045-1.704zM59.038 31.816l2.385-1.18a23.993 23.993 0 0 0-1.397-2.443l-2.23 1.455a20.99 20.99 0 0 1 1.242 2.168zM60.711 36.519l2.594-.593a24.052 24.052 0 0 0-.785-2.702l-2.509.891c.28.787.514 1.59.7 2.404zM61.244 41.044v.217l2.66.044v-.266a23.98 23.98 0 0 0-.132-2.558l-2.646.28c.08.759.119 1.52.118 2.283zM16.004 40.838l2.662.047c.014-.835.077-1.668.19-2.496l-2.639-.359a24.22 24.22 0 0 0-.213 2.808zM16.76 35.267l2.576.665c.21-.808.466-1.604.768-2.382l-2.479-.963c-.341.875-.63 1.77-.865 2.68zM18.799 30.024l2.348 1.252c.392-.737.827-1.45 1.304-2.135l-2.189-1.518a24.327 24.327 0 0 0-1.463 2.401zM22.005 25.41l1.996 1.761a21.534 21.534 0 0 1 1.764-1.774l-1.777-1.983c-.7.626-1.361 1.293-1.983 1.996zM31.732 63.758c.883.321 1.784.591 2.698.81l.61-2.592a21.219 21.219 0 0 1-2.394-.717l-.914 2.5zM37.506 62.412l-.3 2.642c.881.098 1.767.148 2.654.152h.152l-.057-2.66a21.854 21.854 0 0 1-2.449-.134zM42.507 62.395l.316 2.642a23.907 23.907 0 0 0 2.772-.5l-.626-2.584a21.51 21.51 0 0 1-2.462.442zM26.714 61.215c.782.519 1.594.991 2.431 1.415l1.198-2.371c-.746-.38-1.47-.8-2.167-1.263l-1.462 2.219zM47.362 61.215l.923 2.497a23.396 23.396 0 0 0 2.58-1.136l-1.213-2.367c-.743.381-1.507.717-2.29 1.006z"/>
        </g>
    </g>
</svg>
