<svg xmlns="http://www.w3.org/2000/svg" width="66" height="71" viewBox="0 0 66 71">
    <defs>
        <linearGradient id="a" x1="134.947%" x2="-5.489%" y1="67.436%" y2="11.095%">
            <stop offset="0%" stop-color="#7DE3F9"/>
            <stop offset="100%" stop-color="#47C3F1"/>
        </linearGradient>
        <linearGradient id="b" x1="50%" x2="50%" y1="100%" y2="-680.276%">
            <stop offset="0%" stop-color="#0C3483"/>
            <stop offset="100%" stop-color="#6B8CCE"/>
        </linearGradient>
    </defs>
    <g fill="none" fill-rule="evenodd">
        <path fill="url(#a)" d="M1 24c.667 4.667 5.667 6.667 15 6 9.333-.667 24-.667 44 0v14H48c-3.333 1.333-5 3.667-5 7s1.667 5.667 5 7h12v12H7c-4-.667-6-2.333-6-5V24z"/>
        <path fill="url(#b)" fill-rule="nonzero" d="M49.5 47.333a3.543 3.543 0 0 0-3.536 3.55c0 1.961 1.583 3.55 3.536 3.55a3.543 3.543 0 0 0 3.536-3.55c0-1.96-1.583-3.55-3.536-3.55zm0 4.734c-.65 0-1.179-.53-1.179-1.184 0-.653.528-1.183 1.179-1.183.65 0 1.179.53 1.179 1.183 0 .654-.528 1.184-1.179 1.184z"/>
        <path fill="url(#b)" fill-rule="nonzero" d="M61.286 33.252V17.75c0-.653-.528-1.183-1.179-1.183h-9.782C48.385 5.653 37.999-1.616 27.129.333 18.886 1.81 12.432 8.29 10.961 16.567H7.07c-3.903.004-7.067 3.18-7.071 7.1V63.9c.004 3.92 3.168 7.096 7.071 7.1h53.036c.651 0 1.179-.53 1.179-1.183V59.048A5.921 5.921 0 0 0 66 53.25v-14.2a5.921 5.921 0 0 0-4.714-5.798zm-.004 2.45a3.556 3.556 0 0 1 2.36 3.348 3.486 3.486 0 0 1-.065.652c-.012.066-.03.129-.047.194a3.44 3.44 0 0 1-.43 1.025c-.031.048-.058.1-.09.148a3.618 3.618 0 0 1-.392.473c-.025.025-.055.046-.08.071a3.746 3.746 0 0 1-.395.327c-.056.039-.118.074-.171.11a3.467 3.467 0 0 1-.38.207c-.063.03-.127.06-.192.086-.036.014-.077.022-.118.036v-6.677zm-12.32-7.494c.252-.57.481-1.149.678-1.738.025-.075.045-.151.069-.226a19.76 19.76 0 0 0 .457-1.68c.025-.108.053-.215.077-.323a19.94 19.94 0 0 0 .294-1.829c.015-.129.026-.256.039-.385.061-.635.103-1.271.103-1.91 0-.384-.013-.773-.042-1.184h8.292V28.4H48.887c.028-.063.047-.129.076-.192zM30.643 2.367c9.738.064 17.615 7.973 17.68 17.75a17.32 17.32 0 0 1-.126 2.024c0 .06-.009.119-.017.18a17.6 17.6 0 0 1-.354 1.894c-.021.087-.039.174-.061.261a17.924 17.924 0 0 1-.672 2.084 18.049 18.049 0 0 1-.774 1.71l-.07.13h-2.71a15.4 15.4 0 0 0 2.426-8.283h-2.357a13.013 13.013 0 0 1-2.98 8.283h-3.81a5.33 5.33 0 0 0-1.076-7.1 5.32 5.32 0 0 0 .807-7.458 5.285 5.285 0 0 0-2.37-1.682V9.467h-2.357v2.366h-2.357V9.467h-2.357v2.366H24.75c-.65 0-1.179.53-1.179 1.184V28.4h-8.537l-.07-.13a17.928 17.928 0 0 1-.773-1.709c-.038-.095-.072-.19-.107-.285a17.617 17.617 0 0 1-.565-1.798c-.022-.087-.04-.174-.06-.261a17.522 17.522 0 0 1-.354-1.893c-.009-.06-.012-.119-.018-.178a17.366 17.366 0 0 1-.123-2.03c.065-9.776 7.942-17.685 17.679-17.75zm1.769 17.75h-6.482V14.2h6.482a2.952 2.952 0 0 1 2.946 2.958 2.952 2.952 0 0 1-2.946 2.959zm2.946 5.325a2.952 2.952 0 0 1-2.946 2.958h-6.482v-5.917h6.482a2.952 2.952 0 0 1 2.946 2.959zM7.071 18.933h3.577c-.028.41-.04.8-.04 1.184 0 .639.04 1.275.102 1.91.013.129.023.256.039.385.07.614.167 1.224.294 1.829.024.108.052.215.077.323.128.566.28 1.126.457 1.68.024.075.044.151.068.226.197.592.427 1.168.678 1.738.028.063.047.13.076.192H7.07c-2.603 0-4.714-2.12-4.714-4.733 0-2.614 2.11-4.734 4.714-4.734zm51.858 49.7H7.07c-2.603 0-4.714-2.119-4.714-4.733V28.944a7.019 7.019 0 0 0 4.714 1.823H58.93V42.6h-9.133c-4.53-.05-8.295 3.49-8.546 8.03-.14 4.573 3.44 8.393 7.994 8.533.085.002.17.004.256.004h9.429v9.466zm4.714-15.383c0 1.96-1.583 3.55-3.536 3.55H49.5c-3.254.002-5.894-2.646-5.896-5.914l.003-.186c.205-3.265 2.931-5.79 6.189-5.733h10.311c.367-.003.733-.04 1.093-.112.118-.02.221-.055.332-.084.237-.058.47-.13.699-.217a5.763 5.763 0 0 0 .966-.488c.103-.064.207-.118.304-.194.046-.033.1-.058.144-.091l-.002 9.469z"/>
        <path fill="url(#b)" fill-rule="nonzero" d="M15.321 20.117h2.358C17.687 12.93 23.486 7.108 30.643 7.1V4.733c-8.458.01-15.312 6.892-15.322 15.384zM18.857 33.133v7.794l-3.19 3.203a1.186 1.186 0 0 0-.346.837v4.95a3.554 3.554 0 0 0-2.154 4.531 3.532 3.532 0 0 0 4.512 2.164 3.554 3.554 0 0 0 0-6.694v-4.461l3.19-3.204c.22-.222.345-.522.345-.836v-8.284h-2.357zm-2.357 21.3c-.65 0-1.179-.53-1.179-1.183s.528-1.183 1.179-1.183c.65 0 1.179.53 1.179 1.183s-.528 1.183-1.179 1.183zM12.964 33.133v2.959l-4.243 3.195a1.185 1.185 0 0 0-.471.946v1.401a3.554 3.554 0 0 0-2.155 4.53 3.532 3.532 0 0 0 4.512 2.164 3.554 3.554 0 0 0 0-6.694v-.809l4.243-3.195c.297-.224.471-.574.471-.947v-3.55h-2.357zM9.43 46.15c-.651 0-1.179-.53-1.179-1.183 0-.654.528-1.184 1.179-1.184.65 0 1.178.53 1.178 1.184 0 .653-.528 1.183-1.178 1.183zM39.87 60.365a3.543 3.543 0 0 0-2.156-2.164v-9.684c0-.314-.124-.615-.345-.837l-3.19-3.203V33.133H31.82v11.834c0 .314.125.614.346.836l3.19 3.204V58.2a3.554 3.554 0 0 0-2.155 4.53 3.532 3.532 0 0 0 4.512 2.164 3.553 3.553 0 0 0 2.155-4.53zm-3.334 2.352c-.651 0-1.179-.53-1.179-1.184 0-.653.528-1.183 1.179-1.183.65 0 1.178.53 1.178 1.183 0 .654-.527 1.184-1.178 1.184zM25.929 33.133v13.71l-2.012 2.02a1.186 1.186 0 0 0-.346.837v9.467h2.358V50.19l2.011-2.02c.221-.222.346-.523.346-.837v-14.2h-2.357zM40.071 33.133h2.357v4.733h-2.357zM51.333 36.882l-3.012-2.015v-1.734h-2.357V35.5c0 .396.197.765.525.985L49.5 38.5v1.733h2.357v-2.366c0-.396-.197-.765-.524-.985zM40.071 40.233h2.357V42.6h-2.357z"/>
    </g>
</svg>
