<svg xmlns="http://www.w3.org/2000/svg" width="70" height="69" viewBox="0 0 70 69">
    <defs>
        <linearGradient id="a" x1="0%" x2="102%" y1="0%" y2="101%">
            <stop offset="0%" stop-color="#89F7FE"/>
            <stop offset="100%" stop-color="#66A6FF"/>
        </linearGradient>
        <linearGradient id="b" x1="50%" x2="50%" y1="206.981%" y2="-131.904%">
            <stop offset="0%" stop-color="#0C3483"/>
            <stop offset="100%" stop-color="#6B8CCE"/>
        </linearGradient>
    </defs>
    <g fill="none" fill-rule="evenodd">
        <circle cx="33" cy="17" r="12" fill="url(#a)"/>
        <path fill="url(#b)" fill-rule="nonzero" d="M33.07 33.4c9.227 0 16.733-7.473 16.733-16.66C49.803 7.554 42.297.08 33.07.08c-9.226 0-16.733 7.474-16.733 16.66 0 9.187 7.507 16.66 16.733 16.66zm0-31.098c7.996 0 14.502 6.477 14.502 14.438 0 7.962-6.506 14.44-14.502 14.44s-14.502-6.478-14.502-14.44c0-7.96 6.506-14.438 14.502-14.438z"/>
        <path fill="url(#b)" fill-rule="nonzero" d="M29.724 8.966v2.221h-2.232v11.107h2.232v2.221h2.23v-2.221h2.232v2.221h2.23V22.09c1.296-.46 2.232-1.681 2.232-3.127a3.31 3.31 0 0 0-.855-2.222 3.31 3.31 0 0 0 .855-2.22c0-1.447-.936-2.669-2.231-3.128V8.966h-2.231v2.221h-2.231V8.966h-2.231zM35.3 20.072h-5.577v-2.22H35.3c.616 0 1.116.497 1.116 1.11 0 .613-.5 1.11-1.116 1.11zm0-6.664c.616 0 1.116.498 1.116 1.111s-.5 1.11-1.116 1.11h-5.577v-2.22H35.3z"/>
        <path fill="url(#b)" fill-rule="nonzero" d="M25.297 23.063a9.983 9.983 0 0 1-2.267-6.323c0-5.512 4.504-9.995 10.04-9.995 2.31 0 4.566.801 6.35 2.256l1.415-1.718a12.329 12.329 0 0 0-7.765-2.76c-6.766 0-12.27 5.481-12.27 12.217 0 2.812.984 5.557 2.771 7.732l1.726-1.409zM33.07 26.736a10.08 10.08 0 0 1-6.35-2.256l-1.415 1.718a12.329 12.329 0 0 0 7.765 2.76c6.766 0 12.271-5.481 12.271-12.218 0-2.81-.985-5.556-2.772-7.73l-1.726 1.407a9.983 9.983 0 0 1 2.267 6.323c0 5.513-4.503 9.996-10.04 9.996z"/>
        <path fill="url(#b)" fill-rule="nonzero" d="M64.305 6.745H49.803v2.22h14.502a3.343 3.343 0 0 1 3.347 3.333v51.09a3.343 3.343 0 0 1-3.347 3.332h-20.08V35.622h-2.23V66.72h-5.578V35.622h-2.231V66.72H33.07a3.343 3.343 0 0 1-3.346-3.332V35.622h-2.232v27.766c0 3.062 2.503 5.554 5.578 5.554h31.235c3.076 0 5.578-2.492 5.578-5.554v-51.09c0-3.062-2.502-5.553-5.578-5.553z"/>
        <path fill="url(#b)" fill-rule="nonzero" d="M58.727 64.499c3.692 0 6.694-2.989 6.694-6.664 0-1.214-.334-2.35-.906-3.332a6.595 6.595 0 0 0 .906-3.332c0-3.675-3.002-6.664-6.694-6.664-3.69 0-6.693 2.989-6.693 6.664 0 1.214.334 2.35.906 3.332a6.595 6.595 0 0 0-.906 3.332c0 3.675 3.002 6.664 6.693 6.664zm0-17.77c2.461 0 4.463 1.992 4.463 4.442 0 .52-.107 1.01-.273 1.475a6.676 6.676 0 0 0-4.19-1.475 6.676 6.676 0 0 0-4.19 1.475 4.38 4.38 0 0 1-.272-1.475c0-2.45 2.002-4.443 4.462-4.443zm2.921 7.774a4.43 4.43 0 0 1-2.92 1.11 4.43 4.43 0 0 1-2.921-1.11 4.43 4.43 0 0 1 2.92-1.11 4.43 4.43 0 0 1 2.921 1.11zm-7.11 1.857a6.676 6.676 0 0 0 4.19 1.475 6.676 6.676 0 0 0 4.19-1.475c.165.464.272.955.272 1.475 0 2.45-2.002 4.443-4.463 4.443-2.46 0-4.462-1.993-4.462-4.443 0-.52.107-1.01.273-1.475zM11.875 4.523h2.231v2.221h-2.231zM21.915 54.132L5.9 40.064h8.205V8.966h-2.231v28.877H0l21.915 19.252L26 53.507l-1.477-1.666zM11.875.081h2.231v2.221h-2.231z"/>
    </g>
</svg>
