<svg xmlns="http://www.w3.org/2000/svg" xmlns:xlink="http://www.w3.org/1999/xlink" width="240" height="52" viewBox="0 0 240 52">
    <defs>
        <path id="a" d="M0 51.246h239.682V0H0z"/>
    </defs>
    <g fill="none" fill-rule="evenodd">
        <path fill="#FFFDFD" d="M25.623 11.103c4.006 0 7.632 1.623 10.26 4.246l7.85-7.85A25.54 25.54 0 0 0 25.623 0C11.472 0 0 11.472 0 25.623c0 8.759 4.398 16.488 11.103 21.11v-21.11c0-8.019 6.501-14.52 14.52-14.52M25.623 40.142c-1.967 0-3.841-.393-5.552-1.101v11.594c1.788.396 3.645.61 5.552.61 6.963 0 13.274-2.781 17.892-7.289l-7.851-7.85a14.468 14.468 0 0 1-10.041 4.036"/>
        <path fill="#FFFDFD" d="M25.623 31.174c1.42 0 2.712-.538 3.694-1.415l-3.922-3.923 4.146-4.145a5.551 5.551 0 1 0-3.918 9.484"/>
        <path fill="#FFFDFD" d="M25.623 31.174c1.42 0 2.712-.538 3.694-1.415l-3.922-3.923 4.146-4.145a5.551 5.551 0 1 0-3.918 9.484"/>
        <path fill="#FFFDFD" d="M25.623 31.174c1.42 0 2.712-.538 3.694-1.415l-3.922-3.923 4.146-4.145a5.551 5.551 0 1 0-3.918 9.484"/>
        <path fill="#FFFDFD" d="M25.623 31.174c1.42 0 2.712-.538 3.694-1.415l-3.922-3.923 4.146-4.145a5.551 5.551 0 1 0-3.918 9.484"/>
        <path fill="#FFFDFD" d="M29.317 29.759a5.532 5.532 0 0 0 1.858-4.136 5.533 5.533 0 0 0-1.634-3.933l-4.146 4.146 3.922 3.923z"/>
        <path fill="#FFFDFD" d="M29.317 29.759a5.532 5.532 0 0 0 1.858-4.136 5.533 5.533 0 0 0-1.634-3.933l-4.146 4.146 3.922 3.923zM61.499 12.195c3.224 0 5.787 1.622 6.897 4.505H66.07c-.812-1.794-2.392-2.797-4.57-2.797-3.118 0-5.445 2.263-5.445 5.915 0 3.63 2.327 5.893 5.445 5.893 2.178 0 3.758-1.003 4.57-2.776h2.327c-1.11 2.862-3.673 4.463-6.897 4.463-4.164 0-7.43-3.117-7.43-7.58s3.266-7.623 7.43-7.623M73.22 27.27h-1.942V15.57h1.943v1.9c.662-1.303 1.922-2.114 3.78-2.114v2.007h-.513c-1.857 0-3.267.833-3.267 3.545v6.363zM87.313 15.568h2.008L82.274 32.78h-2.007l2.306-5.637-4.719-11.574h2.157l3.673 9.481zM97.178 17.063c-2.114 0-3.972 1.623-3.972 4.335 0 2.754 1.858 4.356 3.972 4.356 2.157 0 3.972-1.623 3.972-4.377 0-2.755-1.815-4.314-3.972-4.314m.406-1.687c3.139 0 5.552 2.349 5.552 6 0 3.63-2.413 6.087-5.552 6.087-2.136 0-3.652-1.154-4.378-2.35v7.709h-1.943V15.568h1.943v2.157c.705-1.239 2.242-2.349 4.378-2.349M106.124 17.17h-1.516v-1.602h1.516v-2.946h1.943v2.946h3.054v1.602h-3.054v6.897c0 1.153.427 1.559 1.624 1.559h1.43v1.644h-1.75c-2.072 0-3.247-.854-3.247-3.203V17.17zM118.572 25.754c2.029 0 4.015-1.388 4.015-4.356 0-2.947-1.943-4.335-3.95-4.335-2.05 0-3.908 1.388-3.908 4.335 0 2.968 1.815 4.356 3.843 4.356m0 1.708c-3.31 0-5.829-2.349-5.829-6.064 0-3.695 2.605-6.022 5.915-6.022 3.331 0 5.915 2.327 5.915 6.022 0 3.715-2.67 6.064-6 6.064M131.939 19.455c2.22 0 3.16-1.046 3.16-2.712 0-1.73-.94-2.755-3.16-2.755h-2.861v5.467h2.86zm0 1.601h-2.861v6.214h-1.943V12.386h4.804c3.502 0 5.146 1.922 5.146 4.357 0 2.263-1.452 4.313-5.146 4.313zM141.44 27.27h-1.942V15.57h1.943v1.9c.662-1.303 1.921-2.114 3.78-2.114v2.007h-.513c-1.858 0-3.267.833-3.267 3.545v6.363zM152.565 25.754c2.029 0 4.014-1.388 4.014-4.356 0-2.947-1.942-4.335-3.95-4.335-2.05 0-3.907 1.388-3.907 4.335 0 2.968 1.815 4.356 3.843 4.356m0 1.708c-3.31 0-5.829-2.349-5.829-6.064 0-3.695 2.605-6.022 5.915-6.022 3.331 0 5.915 2.327 5.915 6.022 0 3.715-2.67 6.064-6 6.064M166.103 15.376c2.904 0 4.804 1.495 5.402 3.95h-2.093c-.405-1.409-1.58-2.306-3.31-2.306-2.135 0-3.715 1.516-3.715 4.378 0 2.904 1.58 4.42 3.716 4.42 1.73 0 2.882-.833 3.31-2.306h2.092c-.598 2.327-2.498 3.95-5.402 3.95-3.332 0-5.702-2.349-5.702-6.064 0-3.673 2.37-6.022 5.702-6.022M175.37 20.565h7.388c.02-2.285-1.687-3.545-3.695-3.545-1.9 0-3.48 1.26-3.694 3.545m3.78 6.897c-3.331 0-5.787-2.349-5.787-6.064 0-3.694 2.37-6.022 5.787-6.022 3.395 0 5.616 2.392 5.616 5.595 0 .427-.022.768-.064 1.174h-9.353c.15 2.37 1.815 3.673 3.801 3.673 1.75 0 2.861-.897 3.288-2.157h2.093c-.598 2.136-2.478 3.801-5.381 3.801M191.469 27.462c-2.733 0-4.655-1.494-4.783-3.63h2.007c.107 1.132 1.11 1.986 2.755 1.986 1.537 0 2.391-.768 2.391-1.73 0-2.605-6.918-1.089-6.918-5.445 0-1.794 1.687-3.267 4.292-3.267 2.583 0 4.292 1.388 4.42 3.673h-1.943c-.086-1.174-.983-2.029-2.541-2.029-1.431 0-2.285.683-2.285 1.623 0 2.776 6.79 1.26 6.876 5.446 0 1.921-1.687 3.373-4.271 3.373M202.614 27.462c-2.733 0-4.655-1.494-4.783-3.63h2.007c.107 1.132 1.11 1.986 2.755 1.986 1.537 0 2.392-.768 2.392-1.73 0-2.605-6.919-1.089-6.919-5.445 0-1.794 1.687-3.267 4.292-3.267 2.584 0 4.292 1.388 4.42 3.673h-1.943c-.085-1.174-.982-2.029-2.541-2.029-1.431 0-2.285.683-2.285 1.623 0 2.776 6.79 1.26 6.876 5.446 0 1.921-1.687 3.373-4.27 3.373"/>
        <mask id="b" fill="#fff">
            <use xlink:href="#a"/>
        </mask>
        <path fill="#FFFDFD" d="M209.617 27.27h1.943V15.568h-1.943V27.27zm-.32-14.926c0-.748.577-1.324 1.324-1.324.705 0 1.281.576 1.281 1.324 0 .747-.576 1.324-1.281 1.324a1.304 1.304 0 0 1-1.324-1.324zM223.433 20.65c0-2.391-1.303-3.608-3.267-3.608-1.986 0-3.353 1.238-3.353 3.758v6.47h-1.943V15.57h1.943v1.665c.769-1.217 2.179-1.879 3.759-1.879 2.711 0 4.782 1.665 4.782 5.018v6.897h-1.921v-6.62zM233.746 17.063c-2.136 0-3.95 1.559-3.95 4.314 0 2.754 1.814 4.377 3.95 4.377 2.135 0 3.972-1.602 3.972-4.356 0-2.712-1.837-4.335-3.972-4.335m-.384-1.687c2.135 0 3.672 1.068 4.356 2.328v-2.136h1.964v11.958c0 3.225-2.157 5.51-5.595 5.51-3.074 0-5.274-1.56-5.658-4.058h1.922c.427 1.41 1.815 2.37 3.736 2.37 2.072 0 3.63-1.323 3.63-3.822v-2.455c-.704 1.26-2.22 2.392-4.355 2.392-3.14 0-5.552-2.456-5.552-6.086 0-3.652 2.413-6 5.552-6" mask="url(#b)"/>
        <g fill="#FFFDFD" mask="url(#b)" opacity=".6">
            <path d="M58.208 38.484h-1.417v2.206h1.444c.807 0 1.291-.403 1.291-1.085 0-.69-.52-1.12-1.318-1.12m-.063-2.7h-1.354v2.027h1.373c.761 0 1.2-.377 1.2-1.013 0-.62-.42-1.013-1.219-1.013m.162 5.577h-2.332v-6.25h2.242c1.318 0 1.981.717 1.981 1.587 0 .79-.492 1.246-1.093 1.444.68.116 1.237.77 1.237 1.542 0 .942-.744 1.677-2.035 1.677M61.664 41.362h.815v-6.635h-.815zM66.156 40.726c.852 0 1.686-.583 1.686-1.829 0-1.238-.816-1.82-1.66-1.82-.86 0-1.64.582-1.64 1.82 0 1.246.763 1.83 1.614 1.83m0 .717c-1.39 0-2.448-.987-2.448-2.547 0-1.551 1.095-2.529 2.484-2.529 1.399 0 2.484.978 2.484 2.53 0 1.559-1.121 2.546-2.52 2.546M72.018 36.368c1.219 0 2.017.628 2.268 1.66h-.878c-.171-.593-.664-.97-1.39-.97-.897 0-1.56.637-1.56 1.84 0 1.218.663 1.855 1.56 1.855.726 0 1.21-.35 1.39-.968h.878c-.25.977-1.049 1.659-2.268 1.659-1.399 0-2.394-.987-2.394-2.547 0-1.542.995-2.529 2.394-2.529M75.481 34.728h.816v3.9l1.893-2.179h1.138l-2.313 2.448 2.322 2.466h-1.112l-1.928-2.17v2.17h-.816zM82.052 36.368c1.22 0 2.018.628 2.269 1.66h-.878c-.171-.593-.665-.97-1.39-.97-.897 0-1.56.637-1.56 1.84 0 1.218.663 1.855 1.56 1.855.725 0 1.21-.35 1.39-.968h.878c-.251.977-1.05 1.659-2.269 1.659-1.398 0-2.394-.987-2.394-2.547 0-1.542.996-2.529 2.394-2.529M85.517 34.728h.816v2.429c.322-.52.932-.798 1.623-.798 1.093 0 1.963.7 1.963 2.108v2.896h-.807v-2.78c0-1.004-.546-1.515-1.372-1.515-.834 0-1.407.52-1.407 1.578v2.717h-.816v-6.635zM93.585 37.077c-.897 0-1.66.654-1.66 1.81 0 1.158.763 1.84 1.66 1.84.897 0 1.667-.673 1.667-1.83 0-1.139-.77-1.82-1.667-1.82m-.162-.709c.915 0 1.542.467 1.829.978v-.897h.825v4.914h-.825v-.915c-.295.53-.932.996-1.838.996-1.309 0-2.322-1.032-2.322-2.556 0-1.533 1.013-2.52 2.331-2.52M97.59 41.363h.816v-4.914h-.816v4.914zm-.135-6.267a.548.548 0 1 1 1.094 0 .547.547 0 1 1-1.094 0zM103.508 38.583c0-1.004-.546-1.515-1.371-1.515-.834 0-1.408.52-1.408 1.578v2.717h-.816v-4.914h.816v.7c.322-.512.914-.79 1.578-.79 1.138 0 2.008.7 2.008 2.108v2.896h-.807v-2.78zM108.406 41.363h.815v-4.914h-.815v4.914zm-.135-6.267a.548.548 0 1 1 1.094 0 .547.547 0 0 1-1.094 0zM114.323 38.583c0-1.004-.547-1.515-1.372-1.515-.833 0-1.407.52-1.407 1.578v2.717h-.816v-4.914h.816v.7c.322-.512.914-.79 1.578-.79 1.139 0 2.008.7 2.008 2.108v2.896h-.807v-2.78zM116.698 37.121h-.637v-.672h.637v-1.237h.816v1.237h1.282v.672h-1.282v2.897c0 .484.179.654.681.654h.6v.69h-.734c-.87 0-1.363-.358-1.363-1.344V37.12zM120.26 38.547h3.102c.009-.96-.709-1.488-1.551-1.488-.798 0-1.462.529-1.552 1.488m1.588 2.896c-1.4 0-2.43-.986-2.43-2.546 0-1.551.995-2.53 2.43-2.53 1.425 0 2.357 1.005 2.357 2.35 0 .18-.008.323-.026.494h-3.928c.064.995.763 1.542 1.597 1.542.735 0 1.201-.377 1.38-.906h.88c-.252.897-1.041 1.596-2.26 1.596M126.25 41.363h-.817v-4.914h.816v.798c.278-.547.807-.888 1.587-.888v.843h-.215c-.78 0-1.372.35-1.372 1.489v2.672zM130.959 37.077c-.897 0-1.659.654-1.659 1.81 0 1.158.762 1.84 1.659 1.84s1.668-.673 1.668-1.83c0-1.139-.771-1.82-1.668-1.82m-.161-.709c.914 0 1.542.467 1.829.978v-.897h.825v4.914h-.825v-.915c-.296.53-.932.996-1.838.996-1.31 0-2.322-1.032-2.322-2.556 0-1.533 1.013-2.52 2.33-2.52M137.074 36.368c1.22 0 2.018.628 2.269 1.66h-.88c-.17-.593-.662-.97-1.389-.97-.896 0-1.56.637-1.56 1.84 0 1.218.664 1.855 1.56 1.855.727 0 1.21-.35 1.39-.968h.879c-.25.977-1.05 1.659-2.269 1.659-1.398 0-2.393-.987-2.393-2.547 0-1.542.995-2.529 2.393-2.529M140.66 37.121h-.636v-.672h.637v-1.237h.816v1.237h1.282v.672h-1.282v2.897c0 .484.179.654.681.654h.6v.69h-.734c-.87 0-1.363-.358-1.363-1.344V37.12zM143.78 41.363h.817v-4.914h-.816v4.914zm-.134-6.267a.548.548 0 1 1 1.094 0 .547.547 0 1 1-1.094 0zM148.247 40.726c.852 0 1.686-.583 1.686-1.829 0-1.238-.816-1.82-1.659-1.82-.86 0-1.64.582-1.64 1.82 0 1.246.761 1.83 1.613 1.83m0 .717c-1.39 0-2.447-.987-2.447-2.547 0-1.551 1.093-2.529 2.483-2.529 1.399 0 2.483.978 2.483 2.53 0 1.559-1.12 2.546-2.519 2.546M155.59 38.583c0-1.004-.546-1.515-1.371-1.515-.834 0-1.408.52-1.408 1.578v2.717h-.816v-4.914h.816v.7c.323-.512.915-.79 1.579-.79 1.138 0 2.008.7 2.008 2.108v2.896h-.807v-2.78zM160.488 41.363h.816v-4.914h-.816v4.914zm-.135-6.267a.548.548 0 1 1 1.094 0 .547.547 0 1 1-1.094 0zM166.406 38.583c0-1.004-.547-1.515-1.372-1.515-.834 0-1.408.52-1.408 1.578v2.717h-.815v-4.914h.815v.7c.323-.512.915-.79 1.579-.79 1.138 0 2.008.7 2.008 2.108v2.896h-.807v-2.78zM168.791 37.121h-.636v-.672h.636v-.35c0-1.094.538-1.586 1.793-1.586v.68c-.735 0-.977.27-.977.906v.35h1.031v.672h-1.03v4.242h-.817V37.12zM172.458 41.363h-.815v-4.914h.815v.798c.278-.547.807-.888 1.588-.888v.843h-.216c-.78 0-1.372.35-1.372 1.489v2.672zM177.167 37.077c-.896 0-1.658.654-1.658 1.81 0 1.158.762 1.84 1.658 1.84.897 0 1.669-.673 1.669-1.83 0-1.139-.772-1.82-1.669-1.82m-.16-.709c.914 0 1.542.467 1.829.978v-.897h.825v4.914h-.825v-.915c-.296.53-.933.996-1.838.996-1.31 0-2.323-1.032-2.323-2.556 0-1.533 1.013-2.52 2.331-2.52M182.915 41.444c-1.148 0-1.954-.629-2.008-1.525h.843c.045.475.466.834 1.156.834.646 0 1.005-.323 1.005-.726 0-1.094-2.906-.458-2.906-2.287 0-.753.709-1.372 1.802-1.372 1.086 0 1.803.583 1.857 1.543h-.816c-.036-.494-.412-.852-1.067-.852-.6 0-.96.287-.96.681 0 1.166 2.851.529 2.887 2.287 0 .807-.708 1.417-1.793 1.417M186.12 37.121h-.636v-.672h.636v-1.237h.817v1.237h1.282v.672h-1.282v2.897c0 .484.179.654.681.654h.6v.69h-.735c-.87 0-1.363-.358-1.363-1.344V37.12zM190.056 41.363h-.815v-4.914h.815v.798c.278-.547.808-.888 1.588-.888v.843h-.215c-.78 0-1.373.35-1.373 1.489v2.672zM197.023 41.363h-.816v-.727c-.314.511-.915.798-1.569.798-1.13 0-2.018-.7-2.018-2.107V36.45h.807v2.77c0 .996.547 1.507 1.372 1.507.843 0 1.408-.52 1.408-1.578v-2.699h.816v4.914zM200.641 36.368c1.22 0 2.018.628 2.269 1.66h-.879c-.17-.593-.664-.97-1.39-.97-.897 0-1.56.637-1.56 1.84 0 1.218.663 1.855 1.56 1.855.726 0 1.211-.35 1.39-.968h.879c-.251.977-1.05 1.659-2.269 1.659-1.398 0-2.394-.987-2.394-2.547 0-1.542.996-2.529 2.394-2.529M204.227 37.121h-.636v-.672h.636v-1.237h.816v1.237h1.283v.672h-1.283v2.897c0 .484.18.654.682.654h.6v.69h-.735c-.87 0-1.363-.358-1.363-1.344V37.12zM211.727 41.363h-.815v-.727c-.314.511-.915.798-1.57.798-1.13 0-2.017-.7-2.017-2.107V36.45h.807v2.77c0 .996.547 1.507 1.372 1.507.843 0 1.408-.52 1.408-1.578v-2.699h.815v4.914zM214.049 41.363h-.816v-4.914h.816v.798c.277-.547.807-.888 1.587-.888v.843h-.215c-.78 0-1.372.35-1.372 1.489v2.672zM217.108 38.547h3.103c.008-.96-.709-1.488-1.552-1.488-.798 0-1.46.529-1.551 1.488m1.587 2.896c-1.399 0-2.43-.986-2.43-2.546 0-1.551.995-2.53 2.43-2.53 1.426 0 2.358 1.005 2.358 2.35 0 .18-.009.323-.026.494h-3.928c.063.995.762 1.542 1.596 1.542.735 0 1.202-.377 1.38-.906h.88c-.251.897-1.04 1.596-2.26 1.596"/>
        </g>
    </g>
</svg>
