<svg xmlns="http://www.w3.org/2000/svg" viewBox="0 0 38.62 38.56"><defs><style>.cls-1{fill:#fff;fill-rule:evenodd;}</style></defs><title>MTRc</title><g id="Layer_2" data-name="Layer 2"><g id="Layer_1-2" data-name="Layer 1"><path class="cls-1" d="M0,19.18A19.28,19.28,0,0,1,19.41,0a19.28,19.28,0,0,1,0,38.56A19.45,19.45,0,0,1,0,19.18Zm35.9,2.32h0l-.39-1.94-1-1.55L34,17.83l.78-3.1v-.19a2.45,2.45,0,0,0-2.52-2.91H19.41L19.21,11l1-.19.19-.39H19.21l.39-.39-.39-.39-.58.78-1-.19.39-1,1-.39-.19-.58.39-.19.78.19.19,1,.58,1,.39-.39.78-.19-.39-.78h.78l.19.78,1.36.19.78-1,.19-1.55-1.36.58.58.78-.78.39-1-.78-.78.39-.39-1,1.75-1,1.75-.58,3.11,1.16,2.52.19L30.66,7l.58.39c-.39-.39-.78-.58-1-1L29.69,7h-1l-.39-.58.58-.58,1.16.58h0A16.23,16.23,0,0,0,19.41,2.33,15.89,15.89,0,0,0,9.12,6h0l1.16-.58L12.42,5l2.33-.39,2.91-.39,1.75.39-1.16.58v.39l-1,.39-.58.58L15.33,7l-.78.19-1.16.39-.78,1.16-1.16.19-.39-1,.58-1.74H9.7l-.58.58L8.15,7h0q-.29,0-.58.58h0l1.55-.39.58.39L9.12,8.91l-1-.19.19-.78-.78-.19L6.4,9.11l-1,1h0c-.19.19-.39.39-.39.58l.58.39,1-.78L6.4,9.88l1-.78,1.16.19.58,1.36-.58.58.39.39H8v-.39l-.39.19h-1L6.4,13.37,6,12.79l-.58,1L4.08,15.11l.39.58L3.11,16.86,3.3,18l-.39.19L2.72,18v.58h.19l.78.58-.39.39-.58-.39c0,.58,0,1.16.19,1.36v.39h0a2.45,2.45,0,0,0,.19,1.16H3.3l.78-.58.39.19-.39,1.94a2.06,2.06,0,0,0,.19,1.55h0l-.58-.58h0c0,.39.19.78.39.78h.19A2.72,2.72,0,0,0,6.4,26.93h4.85l.19.58-1,1.16.19,1L10.29,31l-.78.39V32l-.19.39h0A16.57,16.57,0,0,0,35.9,21.51ZM24.06,33.91l-1.36-3.68.78-2.13-1-1.16h6.6l.39-2.13.78-3.1.39.78,1.75-1-.58,2.13-2.14,2.52v2.91l-1.75,1.16.39,1.16-.78.58-.39,1.16Zm5.82-2.52-.58-.58.78-.58V29.06l1.55-1.16.19.78-1.16,1.74ZM6.4,24.22,8.73,14h2.91v.19l.19-.19,2.52,5,3.49-3.88L19,14h2.91L19.8,24.22H16.88l1-5L13.2,24h0l-2.52-5-1,5.23Zm17.66,0,1.55-7.56H22.51L23.09,14h9.12l-.39,2.71H28.72l-1.55,7.56Zm7.18-3.1-.78-1,.19-1h2.91l.19.19ZM3.88,20.34,3.49,20l.58-.58.78.58h0Zm.19-6.78.58-.39-.58-.58c-.19.19-.19.39-.39.78ZM6.4,9.11h0ZM16.88,7.94l-1-.39L16.11,7H18l.19.39Z"/></g></g></svg>