<svg xmlns="http://www.w3.org/2000/svg" viewBox="0 0 27.86 38.49"><defs><style>.cls-1{fill:#fff;fill-rule:evenodd;}</style></defs><title>BTC</title><g id="Layer_2" data-name="Layer 2"><g id="Layer_1-2" data-name="Layer 1"><path class="cls-1" d="M25.74,11.84q.42,4.21-3,6a7,7,0,0,1,4.05,2.38,6.85,6.85,0,0,1,1,5A8.77,8.77,0,0,1,27,28a6.38,6.38,0,0,1-1.5,2.06,7.58,7.58,0,0,1-2.24,1.35,13.64,13.64,0,0,1-2.82.8,27.61,27.61,0,0,1-3.37.35v5.9H13.55V32.68c-1.24,0-2.18,0-2.83,0v5.83H7.16v-5.9H0l.72-4.23H3.29a1.24,1.24,0,0,0,1.35-1.18v-9.3H5l-.37,0V11.2A1.84,1.84,0,0,0,2.57,9.62H0V5.83l4.91,0c1,0,1.73,0,2.25,0V0h3.57V5.71c1.27,0,2.21,0,2.83,0V0h3.57V5.83a20.84,20.84,0,0,1,3.24.52,10.5,10.5,0,0,1,2.62,1,5.31,5.31,0,0,1,1.91,1.8,5.91,5.91,0,0,1,.84,2.65Zm-5,12.61A3.07,3.07,0,0,0,20.41,23a3.46,3.46,0,0,0-.86-1.07,4.52,4.52,0,0,0-1.33-.71,11.29,11.29,0,0,0-1.52-.43A13.45,13.45,0,0,0,15,20.56q-1-.07-1.6-.07l-1.49,0-1.1,0v7.82h2l1.23,0c.53,0,1-.05,1.36-.09s.82-.1,1.32-.2A8.61,8.61,0,0,0,18,27.73a8,8,0,0,0,1.1-.49,3.23,3.23,0,0,0,.92-.69,3.28,3.28,0,0,0,.56-.93,3,3,0,0,0,.22-1.18Zm-1.65-11a3,3,0,0,0-.29-1.35,3.22,3.22,0,0,0-.71-1A3.46,3.46,0,0,0,17,10.47a8,8,0,0,0-1.27-.38,12.8,12.8,0,0,0-1.42-.18c-.56,0-1-.07-1.35-.06l-1.25,0H10.8V17h1.88l1.16,0a9.34,9.34,0,0,0,1.27-.13c.34-.06.74-.15,1.19-.25a3.88,3.88,0,0,0,1.12-.43,6.43,6.43,0,0,0,.86-.62,2.27,2.27,0,0,0,.63-.89,3.21,3.21,0,0,0,.21-1.18Z"/></g></g></svg>