<svg xmlns="http://www.w3.org/2000/svg" viewBox="0 0 131.24 131.24"><defs><style>.cls-1{fill:none;}.cls-1,.cls-2{fill-rule:evenodd;}.cls-2{fill:#fff;}</style></defs><title>Asset 63</title><g id="Layer_2" data-name="Layer 2"><g id="Layer_1-2" data-name="Layer 1"><path class="cls-1" d="M131.24,65.62a65.62,65.62,0,1,0-65.62,65.62,65.65,65.65,0,0,0,65.62-65.62Z"/><path class="cls-2" d="M18,97.22V44.4h8.13L26.85,20H37.67l.69,20.32L33,44.4h9.36L66.78,32.22V44.4L91.16,32.22V44.4l24.38-12.19V44.4h0V97.22H83V76.9H50.54V97.22Zm36.56,0V81H79V97.22ZM46.48,68.78V56.59H30.22V68.78Zm28.44,0V56.59H58.66V68.78Zm28.44,0V56.59H87.1V68.78Z"/></g></g></svg>