<svg width="16" height="22" viewBox="0 0 16 22" fill="none" xmlns="http://www.w3.org/2000/svg">
<path d="M15.622 5.47559C15.5393 5.18209 15.3715 4.86937 15.2473 4.59556C13.7611 1.21244 10.5139 0 7.89192 0C4.38195 0 0.51612 2.2294 0 6.8247V7.76355C0 7.80273 0.0142557 8.15469 0.0345052 8.33075C0.323831 10.5208 2.14818 12.8483 3.51068 15.0383C4.97653 17.3846 6.49756 19.6928 8.00451 22C8.93372 20.4944 9.85958 18.9689 10.7676 17.5023C11.0151 17.0719 11.3024 16.6417 11.5501 16.2309C11.7153 15.9573 12.0307 15.6838 12.1748 15.4293C13.6406 12.8872 16 10.3255 16 7.80268V6.76629C16.0001 6.4928 15.6421 5.53456 15.622 5.47559ZM7.95618 10.1886C6.92442 10.1886 5.79509 9.69991 5.23767 8.35034C5.15462 8.13551 5.16131 7.70498 5.16131 7.66555V7.05933C5.16131 5.33887 6.70352 4.55649 8.04517 4.55649C9.69688 4.55649 10.9743 5.80821 10.9743 7.37277C10.9743 8.93727 9.60789 10.1886 7.95618 10.1886Z" fill="#4A8F01"/>
</svg>
