<?xml version="1.0" encoding="UTF-8"?>
<svg width="133px" height="173px" viewBox="0 0 133 173" version="1.1" xmlns="http://www.w3.org/2000/svg" xmlns:xlink="http://www.w3.org/1999/xlink">
    <!-- Generator: Sketch 51.2 (57519) - http://www.bohemiancoding.com/sketch -->
    <title>logo_corner</title>
    <desc>Created with Sketch.</desc>
    <defs></defs>
    <g id="Main" stroke="none" stroke-width="1" fill="none" fill-rule="evenodd">
        <g id="CryptoProcessing_Product_Tokensale_Platform" transform="translate(-696.000000, -3963.000000)" fill-rule="nonzero">
            <g id="Tokensale-platform" transform="translate(493.000000, 3748.000000)">
                <g id="Cover" transform="translate(119.000000, 99.000000)">
                    <g id="logo_corner" transform="translate(84.077491, 116.080332)">
                        <path d="M101.334498,43.7473204 C117.178146,43.7473204 131.520356,50.139477 141.908831,60.4756227 L172.95941,29.542902 C154.624621,11.2884913 129.304508,0 101.334498,0 C45.3691435,0 0,45.1993949 0,100.955355 C0,135.466943 17.3940665,165.918443 43.9116157,184.127424 L43.9116157,100.955355 C43.9116157,69.3613765 69.6218666,43.7473204 101.334498,43.7473204" id="Fill-1" fill="#309CF5"></path>
                        <path d="M101.269035,157.494992 C93.4773851,157.494992 86.0512063,155.95774 79.2730627,153.185675 L79.2730627,198.551305 C86.3574579,200.098583 93.7125728,200.939058 101.269035,200.939058 C128.858753,200.939058 153.861406,190.054649 172.158672,172.418029 L141.052982,141.698061 C130.718259,151.474647 116.710208,157.494992 101.269035,157.494992" id="Fill-3" fill="#309CF5"></path>
                        <path d="M116.833859,85.6766902 C120.835911,89.6630755 123.313653,95.1766965 123.313653,101.269406 C123.313653,107.794383 120.457834,113.638581 115.947131,117.670756 L103.501451,105.227745 L115.946453,117.671434 C112.052309,121.151534 106.928434,123.285319 101.293019,123.285319 C89.1312278,123.285319 79.2730627,113.429267 79.2730627,101.270083 C79.2730627,89.1108992 89.1312278,79.2548476 101.293019,79.2548476 C107.35867,79.2548476 112.851802,81.7086997 116.834027,85.6765225 Z" id="Combined-Shape" fill="#48C3F2"></path>
                    </g>
                </g>
            </g>
        </g>
    </g>
</svg>