<?xml version="1.0" encoding="UTF-8"?>
<svg width="20px" height="23px" viewBox="0 0 20 23" version="1.1" xmlns="http://www.w3.org/2000/svg" xmlns:xlink="http://www.w3.org/1999/xlink">
    <!-- Generator: Sketch 51.2 (57519) - http://www.bohemiancoding.com/sketch -->
    <title>logo_small</title>
    <desc>Created with Sketch.</desc>
    <defs></defs>
    <g id="Main" stroke="none" stroke-width="1" fill="none" fill-rule="evenodd">
        <g id="CryptoProcessing_Product_Tokensale_Platform_2" transform="translate(-797.000000, -4103.000000)" fill-rule="nonzero">
            <g id="Tokensale-platform" transform="translate(493.000000, 3748.000000)">
                <g id="Page" transform="translate(119.000000, 99.000000)">
                    <g id="logo_small" transform="translate(185.000000, 256.000000)">
                        <path d="M11.7177201,5.0074305 C13.5497857,5.0074305 15.2082337,5.73909314 16.4094953,6.92219489 L20,3.38155634 C17.8798738,1.29210966 14.9520062,0 11.7177201,0 C5.24621859,0 0,5.17363868 0,11.5556089 C0,15.5058937 2.01134666,18.9914506 5.07767872,21.0756972 L5.07767872,11.5556089 C5.07767872,7.93928106 8.05065961,5.0074305 11.7177201,5.0074305" id="Fill-1" fill="#309CF5"></path>
                        <path d="M11.7101505,18.0272807 C10.8091702,18.0272807 9.95045098,17.851323 9.16666667,17.5340252 L9.16666667,22.7266917 C9.9858641,22.903797 10.8363659,23 11.7101505,23 C14.9004617,23 17.7916202,21.7541426 19.9074074,19.7354098 L16.31053,16.2191235 C15.1154839,17.3381766 13.4956761,18.0272807 11.7101505,18.0272807" id="Fill-3" fill="#309CF5"></path>
                        <path d="M13.5099743,9.80677372 C13.9727479,10.2630656 14.2592593,10.8941688 14.2592593,11.5915559 C14.2592593,12.3384215 13.9290293,13.0073635 13.4074383,13.4688966 L11.9682938,12.0446376 L13.40736,13.4689741 C12.9570642,13.8673154 12.3645697,14.1115538 11.7129238,14.1115538 C10.3066064,14.1115538 9.16666667,12.9834048 9.16666667,11.5916335 C9.16666667,10.1998621 10.3066064,9.07171315 11.7129238,9.07171315 C12.4143197,9.07171315 13.0495129,9.35258734 13.5099937,9.80675452 Z" id="Combined-Shape" fill="#48C3F2"></path>
                    </g>
                </g>
            </g>
        </g>
    </g>
</svg>