<svg xmlns="http://www.w3.org/2000/svg" width="22" height="22" viewBox="0 0 22 22">
    <g fill="none" fill-rule="evenodd" stroke="#FFF" stroke-linecap="round" stroke-linejoin="round" stroke-width="1.5" opacity=".5">
        <path d="M20.048 16.162v2.857a1.905 1.905 0 0 1-2.077 1.905A18.848 18.848 0 0 1 9.752 18a18.571 18.571 0 0 1-5.714-5.714 18.848 18.848 0 0 1-2.924-8.257A1.905 1.905 0 0 1 3.01 1.952h2.857A1.905 1.905 0 0 1 7.77 3.59c.121.915.345 1.813.667 2.677.262.696.094 1.48-.428 2.01L6.8 9.485a15.238 15.238 0 0 0 5.714 5.714l1.21-1.21a1.905 1.905 0 0 1 2.01-.428c.863.322 1.761.546 2.676.667a1.905 1.905 0 0 1 1.638 1.933zM13.429 4.81A4.762 4.762 0 0 1 17.19 8.57M13.429 1A8.571 8.571 0 0 1 21 8.562"/>
    </g>
</svg>
