<svg xmlns="http://www.w3.org/2000/svg" viewBox="0 0 23.5 23.5"><defs><style>.cls-1{fill:none;stroke:#fff;stroke-miterlimit:10;}.cls-2{fill:#fff;fill-rule:evenodd;}</style></defs><title>Asset 51</title><g id="Layer_2" data-name="Layer 2"><g id="Layer_1-2" data-name="Layer 1"><path class="cls-1" d="M11.75.5A11.25,11.25,0,1,1,.5,11.75,11.25,11.25,0,0,1,11.75.5Z"/><path class="cls-2" d="M9.3,10.24v5.81H7.36V10.24Zm.12-1.79a.92.92,0,0,1-.3.71,1.1,1.1,0,0,1-.79.29h0a1.06,1.06,0,0,1-.77-.29,1,1,0,0,1-.29-.71,1,1,0,0,1,.3-.72,1.1,1.1,0,0,1,.79-.28,1.07,1.07,0,0,1,.78.28,1,1,0,0,1,.3.72Zm6.83,4.27v3.33H14.32V12.95a1.69,1.69,0,0,0-.24-1,.83.83,0,0,0-.74-.35,1,1,0,0,0-.62.2,1.24,1.24,0,0,0-.37.5,1.41,1.41,0,0,0-.07.47v3.24H10.36q0-2.34,0-3.79c0-1,0-1.55,0-1.73v-.28h1.93v.84h0a2.51,2.51,0,0,1,.24-.33,2.44,2.44,0,0,1,.33-.3,1.51,1.51,0,0,1,.51-.26,2.3,2.3,0,0,1,.67-.09,2.08,2.08,0,0,1,1.61.67,2.79,2.79,0,0,1,.61,1.95Z"/></g></g></svg>