<svg xmlns="http://www.w3.org/2000/svg" viewBox="0 0 23.5 23.5"><defs><style>.cls-1{fill:none;stroke:#fff;stroke-miterlimit:10;}.cls-2{fill:#fff;fill-rule:evenodd;}</style></defs><title>Asset 53</title><g id="Layer_2" data-name="Layer 2"><g id="Layer_1-2" data-name="Layer 1"><path class="cls-1" d="M11.75.5A11.25,11.25,0,1,1,.5,11.75,11.25,11.25,0,0,1,11.75.5Z"/><path class="cls-2" d="M16.37,8.89a4,4,0,0,1-.95,1c0,.05,0,.14,0,.25a5.38,5.38,0,0,1-.22,1.52,5.51,5.51,0,0,1-.68,1.46,5.71,5.71,0,0,1-1.08,1.23,4.83,4.83,0,0,1-1.51.86A5.54,5.54,0,0,1,10,15.5a5.26,5.26,0,0,1-2.91-.85l.46,0a3.71,3.71,0,0,0,2.35-.81,1.9,1.9,0,0,1-1.77-1.31l.36,0a1.91,1.91,0,0,0,.5-.06,1.85,1.85,0,0,1-1.09-.65,1.83,1.83,0,0,1-.43-1.2v0a1.88,1.88,0,0,0,.86.24,1.9,1.9,0,0,1-.61-.67,1.89,1.89,0,0,1,0-1.86A5.37,5.37,0,0,0,9.5,9.74a5.28,5.28,0,0,0,2.18.58,2.06,2.06,0,0,1,0-.43A1.89,1.89,0,0,1,14.91,8.6a3.73,3.73,0,0,0,1.2-.46,1.84,1.84,0,0,1-.83,1,3.75,3.75,0,0,0,1.09-.29Z"/></g></g></svg>