<svg xmlns="http://www.w3.org/2000/svg" viewBox="0 0 23.5 23.5"><defs><style>.cls-1{fill:none;stroke:#fff;stroke-miterlimit:10;}.cls-2{fill:#fff;fill-rule:evenodd;}</style></defs><title>Asset 57</title><g id="Layer_2" data-name="Layer 2"><g id="Layer_1-2" data-name="Layer 1"><path class="cls-1" d="M11.75.5A11.25,11.25,0,1,1,.5,11.75,11.25,11.25,0,0,1,11.75.5Z"/><path class="cls-2" d="M14.2,12.12a.44.44,0,0,0,0-.75L10.66,9.17a.44.44,0,0,0-.68.37V14a.42.42,0,0,0,.23.39.49.49,0,0,0,.21.06.39.39,0,0,0,.23-.07l3.54-2.21Zm3.74-1.41c0,.25,0,.59,0,1s0,.79,0,1,0,.56-.06.94a7.77,7.77,0,0,1-.16,1,1.62,1.62,0,0,1-.48.85,1.46,1.46,0,0,1-.86.4,45.32,45.32,0,0,1-4.63.17A45.35,45.35,0,0,1,7.12,16a1.48,1.48,0,0,1-.86-.4,1.61,1.61,0,0,1-.48-.85,8.39,8.39,0,0,1-.15-1q-.05-.57-.06-.94t0-1c0-.44,0-.79,0-1s0-.56.06-.94a7.6,7.6,0,0,1,.16-1,1.61,1.61,0,0,1,.48-.85,1.45,1.45,0,0,1,.86-.4,44.94,44.94,0,0,1,4.63-.17,44.9,44.9,0,0,1,4.63.17,1.46,1.46,0,0,1,.86.4,1.6,1.6,0,0,1,.48.85,8.79,8.79,0,0,1,.15,1c0,.38.05.69.06.94Z"/></g></g></svg>