<svg xmlns="http://www.w3.org/2000/svg" viewBox="0 0 23.5 23.5"><defs><style>.cls-1{fill:none;stroke:#fff;stroke-miterlimit:10;}.cls-2{fill:#fff;fill-rule:evenodd;}</style></defs><title>Asset 58</title><g id="Layer_2" data-name="Layer 2"><g id="Layer_1-2" data-name="Layer 1"><path class="cls-1" d="M11.75.5A11.25,11.25,0,1,1,.5,11.75,11.25,11.25,0,0,1,11.75.5Z"/><path class="cls-2" d="M9.87,8.77v7.36a.45.45,0,0,1-.08.27.26.26,0,0,1-.23.11.45.45,0,0,1-.21-.05L6.44,15a.53.53,0,0,1-.22-.21.55.55,0,0,1-.09-.29V7.34a.35.35,0,0,1,.06-.21A.21.21,0,0,1,6.37,7a.73.73,0,0,1,.28.09L9.85,8.74l0,0Zm.4.63,3.35,5.44-3.35-1.67V9.4Zm7.1.11v6.62a.36.36,0,0,1-.09.26.3.3,0,0,1-.24.1.58.58,0,0,1-.29-.08L14,15l3.39-5.51Zm0-.75s-.54.89-1.61,2.63l-1.89,3.06-2.45-4,2-3.31A.36.36,0,0,1,13.77,7a.37.37,0,0,1,.16,0l3.4,1.7a0,0,0,0,1,0,0Z"/></g></g></svg>