<svg xmlns="http://www.w3.org/2000/svg" viewBox="0 0 23.5 23.5"><defs><style>.cls-1{fill:none;stroke:#fff;stroke-miterlimit:10;}.cls-2{fill:#fff;fill-rule:evenodd;}</style></defs><title>Asset 55</title><g id="Layer_2" data-name="Layer 2"><g id="Layer_1-2" data-name="Layer 1"><path class="cls-1" d="M11.75.5A11.25,11.25,0,1,1,.5,11.75,11.25,11.25,0,0,1,11.75.5Z"/><path class="cls-2" d="M17.38,11.75a1.23,1.23,0,0,1-.19.66,1.2,1.2,0,0,1-.5.45,2.34,2.34,0,0,1,.08.6,2.81,2.81,0,0,1-.67,1.8,4.51,4.51,0,0,1-1.82,1.31,6.48,6.48,0,0,1-2.51.48,6.46,6.46,0,0,1-2.51-.48,4.52,4.52,0,0,1-1.82-1.31,2.8,2.8,0,0,1-.67-1.8,2.58,2.58,0,0,1,.07-.59,1.26,1.26,0,0,1-.51-.46,1.25,1.25,0,0,1,2-1.52,5.87,5.87,0,0,1,3.23-1l.73-3.27a.22.22,0,0,1,.1-.13.21.21,0,0,1,.16,0L14.82,7a.91.91,0,0,1,.34-.37.95.95,0,0,1,1.16.13.9.9,0,0,1,.28.66.94.94,0,1,1-1.88,0l-2.1-.46-.65,3a5.91,5.91,0,0,1,3.26,1,1.25,1.25,0,0,1,1.78,0,1.21,1.21,0,0,1,.36.88ZM8.75,13a.92.92,0,0,0,.27.67.94.94,0,0,0,1.33,0,.91.91,0,0,0,.28-.67.89.89,0,0,0-.28-.66.91.91,0,0,0-.66-.27.94.94,0,0,0-.94.94Zm5.09,2.23a.23.23,0,0,0,.07-.16.22.22,0,0,0-.07-.16.21.21,0,0,0-.16-.06.23.23,0,0,0-.16.06,1.58,1.58,0,0,1-.76.39,4.1,4.1,0,0,1-2,0A1.57,1.57,0,0,1,10,14.9a.24.24,0,0,0-.16-.06.22.22,0,0,0-.16.06.21.21,0,0,0-.07.16.23.23,0,0,0,.07.17,1.88,1.88,0,0,0,.74.43,3.73,3.73,0,0,0,.77.19l.57,0,.57,0a3.7,3.7,0,0,0,.77-.19,1.86,1.86,0,0,0,.74-.43Zm-.68-1.56a.91.91,0,0,0,.66.28.9.9,0,0,0,.66-.28.91.91,0,0,0,.27-.67.94.94,0,0,0-.93-.94.91.91,0,0,0-.66.27.9.9,0,0,0-.28.66.91.91,0,0,0,.28.67Z"/></g></g></svg>