<svg xmlns="http://www.w3.org/2000/svg" width="40" height="52" viewBox="0 0 40 52">
    <g fill="#FFF" fill-rule="nonzero">
        <path d="M36.047 27.364l3.26.66c.227-1.15.393-2.312.499-3.48l-3.31-.304a29.692 29.692 0 0 1-.449 3.124z"/>
        <path d="M38.286 6.62A25.616 25.616 0 0 1 23.99 2.278L20.596 0h-1.19l-3.387 2.277A25.617 25.617 0 0 1 1.715 6.621H.052v14.897C.07 34.462 7.595 46.207 19.312 51.58l.688.317.689-.315A32.714 32.714 0 0 0 35.64 37.863l-2.889-1.654A29.407 29.407 0 0 1 20 48.22C9.84 43.242 3.388 32.88 3.377 21.518V9.916a28.901 28.901 0 0 0 14.487-4.867L20 3.614l2.137 1.431a28.901 28.901 0 0 0 14.487 4.87v11.14h3.324V6.622h-1.662z"/>
        <path d="M34.162 33.385l3.047 1.337a33.25 33.25 0 0 0 1.227-3.295l-3.172-1.002a29.64 29.64 0 0 1-1.102 2.96zM25.057 19.682a5.754 5.754 0 0 0-.07-.063v-4.645h-3.324v3.342h-3.325v-3.342h-3.325v3.342h-1.662v16.707h1.662v3.34h3.325v-3.34h3.325v3.34h3.324V33.72a4.963 4.963 0 0 0 .366-7.05 4.963 4.963 0 0 0-.296-6.987zm-3.394 12h-4.987V28.34h4.987c.918 0 1.662.748 1.662 1.67 0 .923-.744 1.671-1.662 1.671zm0-6.684h-4.987v-3.34h4.987c.918 0 1.662.747 1.662 1.67 0 .922-.744 1.67-1.662 1.67z"/>
    </g>
</svg>
