<svg xmlns="http://www.w3.org/2000/svg" width="50" height="50" viewBox="0 0 50 50">
    <g fill="#FFF" fill-rule="nonzero">
        <path d="M24.167 5V3.333H22.5V5h-.833a.833.833 0 0 0-.834.833V12.5c0 .46.373.833.834.833h.833V15h1.667v-1.667h1.666V15H27.5v-1.82a2.488 2.488 0 0 0 1.028-4.013A2.488 2.488 0 0 0 27.5 5.153v-1.82h-1.667V5h-1.666zm2.5 6.667H22.5V10h4.167a.833.833 0 0 1 0 1.667zm0-3.334H22.5V6.667h4.167a.833.833 0 0 1 0 1.666z"/>
        <path d="M15.833 9.167A9.167 9.167 0 1 0 25 0a9.177 9.177 0 0 0-9.167 9.167zm16.667 0a7.5 7.5 0 1 1-7.5-7.5 7.508 7.508 0 0 1 7.5 7.5zM40.833 12.5A9.167 9.167 0 1 0 50 21.667a9.177 9.177 0 0 0-9.167-9.167zm0 16.667a7.5 7.5 0 1 1 7.5-7.5 7.508 7.508 0 0 1-7.5 7.5z"/>
        <path d="M43.125 20.833c-.162.001-.324.017-.483.049a2.5 2.5 0 1 0-3.62 0 2.473 2.473 0 0 0-.454-.049 2.5 2.5 0 1 0 2.279 3.518 2.5 2.5 0 1 0 2.278-3.518zm-2.292-2.5a.833.833 0 1 1 0 1.667.833.833 0 0 1 0-1.667zm.483 3.285c-.195.205-.354.44-.47.698a2.513 2.513 0 0 0-.466-.695c.15.03.301.044.453.046.162-.001.324-.017.483-.049zm-2.748 2.549a.833.833 0 1 1 0-1.667.833.833 0 0 1 0 1.667zm4.557 0a.833.833 0 1 1 0-1.667.833.833 0 0 1 0 1.667zM13.333 31.667a9.167 9.167 0 1 0 9.167 9.166 9.177 9.177 0 0 0-9.167-9.166zm0 16.666a7.5 7.5 0 1 1 7.5-7.5 7.508 7.508 0 0 1-7.5 7.5z"/>
        <path d="M12.023 40.833H15v-1.666h-2.236l1.334-2.995-1.524-.677-1.634 3.672H9.167v1.666h1.032l-.96 2.162A.833.833 0 0 0 10 44.167h6.667V42.5h-5.385l.741-1.667zM36.667 31.667a9.167 9.167 0 1 0 9.166 9.166 9.177 9.177 0 0 0-9.166-9.166zm0 16.666a7.5 7.5 0 1 1 7.5-7.5 7.508 7.508 0 0 1-7.5 7.5zM9.167 30.833A9.167 9.167 0 1 0 0 21.667a9.177 9.177 0 0 0 9.167 9.166zm0-16.666a7.5 7.5 0 1 1-7.5 7.5 7.508 7.508 0 0 1 7.5-7.5z"/>
        <path d="M12.092 19.303a.347.347 0 0 1 .064.305l-1.073 4.29a.356.356 0 0 1-.345.269H5v1.666h5.74c.927.001 1.736-.63 1.96-1.531l1.072-4.29a2.02 2.02 0 0 0-1.96-2.512H5.833v1.667h5.979c.11 0 .213.05.28.136z"/>
        <path d="M4.167 20.833h4.166V22.5H4.167zM40.833 37.5a.833.833 0 0 0-1.333-.667l-2.833 2.125-2.834-2.125a.833.833 0 0 0-1.333.667v4.167h-1.667v1.666h2.5c.46 0 .834-.373.834-.833v-3.333l2 1.5a.833.833 0 0 0 1 0l2-1.5V42.5c0 .46.373.833.833.833h2.5v-1.666h-1.667V37.5z"/>
    </g>
</svg>
