<svg xmlns="http://www.w3.org/2000/svg" width="30" height="39" viewBox="0 0 30 39">
    <path fill="#FFF" fill-rule="evenodd" d="M2.647 0h24.706A2.647 2.647 0 0 1 30 2.647v33.706A2.647 2.647 0 0 1 27.353 39H2.647A2.647 2.647 0 0 1 0 36.353V2.647A2.647 2.647 0 0 1 2.647 0zm1.765 30.136v2.66h21.176v-2.66H4.412zm17.647-6.204v-1.773a3.537 3.537 0 0 0-3.53-3.545h-7.058a3.537 3.537 0 0 0-3.53 3.545v1.773H22.06zM15 15.068c1.95 0 3.53-1.587 3.53-3.545A3.537 3.537 0 0 0 15 7.977a3.537 3.537 0 0 0-3.53 3.546A3.537 3.537 0 0 0 15 15.068z"/>
</svg>
