<svg xmlns="http://www.w3.org/2000/svg" width="36" height="36" viewBox="0 0 36 36">
    <path fill="#FFF" fill-rule="nonzero" d="M13.184 28.562l-1.821 1.809a4.076 4.076 0 0 1-5.726 0 3.94 3.94 0 0 1-1.175-2.816c0-1.063.417-2.063 1.175-2.816l6.705-6.652c1.39-1.378 4.003-3.407 5.909-1.518a2.23 2.23 0 1 0 3.143-3.165c-3.239-3.214-8.025-2.62-12.194 1.517l-6.706 6.652A8.372 8.372 0 0 0 0 27.555a8.37 8.37 0 0 0 2.495 5.982A8.498 8.498 0 0 0 8.499 36c2.175 0 4.35-.82 6.007-2.464l1.823-1.81a2.23 2.23 0 1 0-3.145-3.164zM33.504 2.72C30.026-.732 25.162-.92 21.942 2.276l-2.27 2.254a2.23 2.23 0 1 0 3.143 3.165l2.27-2.252c1.668-1.657 3.852-.97 5.277.443a3.939 3.939 0 0 1 1.177 2.817 3.943 3.943 0 0 1-1.176 2.816l-7.154 7.097c-3.27 3.245-4.805 1.722-5.46 1.072a2.23 2.23 0 0 0-3.143 3.165c1.501 1.49 3.215 2.23 5.012 2.23 2.2 0 4.524-1.108 6.734-3.302l7.153-7.097A8.375 8.375 0 0 0 36 8.702c0-2.26-.886-4.384-2.496-5.982z"/>
</svg>
