<svg xmlns="http://www.w3.org/2000/svg" width="40" height="44" viewBox="0 0 40 44">
    <g fill="#FFF" fill-rule="nonzero">
        <path d="M31.698 5.778l-1.754 2.41A17.103 17.103 0 0 1 36.97 21.98c0 9.383-7.624 17.018-16.993 17.018v-1.739a.231.231 0 0 0-.367-.188l-4.69 3.226c-.134.09-.134.287 0 .385l4.69 3.226c.152.108.367 0 .367-.188v-1.738c11.015 0 19.973-8.97 19.973-20.002 0-6.39-3.088-12.438-8.25-16.202z"/>
        <path d="M31.752 19.928l-2.336-.394a9.5 9.5 0 0 0-1.047-2.519l1.37-1.926a.9.9 0 0 0-.099-1.156l-.823-.825-.824-.824a.916.916 0 0 0-1.145-.072l-1.924 1.371a9.21 9.21 0 0 0-2.514-1.057l-.394-2.33a.893.893 0 0 0-.877-.744h-2.327a.893.893 0 0 0-.877.744l-.393 2.339a9.071 9.071 0 0 0-2.569 1.084l-1.906-1.353a.896.896 0 0 0-1.154.099l-.823.824-.824.824a.91.91 0 0 0-.098 1.156l1.378 1.945a10.016 10.016 0 0 0-1.029 2.518L8.199 20a.893.893 0 0 0-.742.878v2.33c0 .43.313.806.742.878l2.345.394c.232.87.581 1.712 1.056 2.51l-1.351 1.908a.9.9 0 0 0 .098 1.156l.823.825.823.824a.906.906 0 0 0 1.155.099l1.942-1.38a9.986 9.986 0 0 0 2.514 1.03l.385 2.312c.072.43.447.744.877.744h2.327c.43 0 .805-.314.877-.744l.393-2.348a9.604 9.604 0 0 0 2.452-1.021l1.924 1.37a.896.896 0 0 0 1.154-.098l.824-.824.823-.825a.91.91 0 0 0 .098-1.156l-1.35-1.935a9.779 9.779 0 0 0 1.037-2.518l2.327-.395a.893.893 0 0 0 .743-.878v-2.33a.893.893 0 0 0-.743-.878zm-8.439 5.27a4.627 4.627 0 0 1-6.541.008 4.643 4.643 0 0 1-.009-6.55 4.627 4.627 0 0 1 6.541-.01 4.626 4.626 0 0 1 .01 6.551z"/>
        <path d="M25.031 3.269L20.342.043a.233.233 0 0 0-.366.188v1.738C8.96 1.98.002 10.95.002 21.98c0 6.39 3.079 12.438 8.251 16.202l1.754-2.41A17.103 17.103 0 0 1 2.982 21.98c0-9.382 7.624-17.026 16.994-17.026v1.738c0 .188.205.296.366.188l4.69-3.226c.134-.09.134-.287 0-.385z"/>
    </g>
</svg>
