<svg xmlns="http://www.w3.org/2000/svg" width="40" height="28" viewBox="0 0 40 28">
    <g fill="#FFF" fill-rule="nonzero">
        <path d="M0 10.182v15.273C0 26.86 1.123 28 2.5 28h35c1.38 0 2.5-1.14 2.5-2.545V10.182H0zm13.75 10.182h-7.5c-.69 0-1.25-.57-1.25-1.273s.56-1.273 1.25-1.273h7.5c.69 0 1.25.57 1.25 1.273 0 .702-.56 1.273-1.25 1.273zm17.5 2.545a3.69 3.69 0 0 1-2.5-.99 3.69 3.69 0 0 1-2.5.99c-2.07 0-3.75-1.71-3.75-3.818s1.68-3.818 3.75-3.818a3.69 3.69 0 0 1 2.5.99 3.69 3.69 0 0 1 2.5-.99c2.07 0 3.75 1.71 3.75 3.818s-1.68 3.818-3.75 3.818zM37.5 0h-35C1.123 0 0 1.143 0 2.545v2.546h40V2.545C40 1.143 38.88 0 37.5 0z"/>
    </g>
</svg>
