<svg xmlns="http://www.w3.org/2000/svg" viewBox="0 0 32.05 23.37"><defs><style>.cls-1{fill:#fff;fill-rule:evenodd;}</style></defs><title>Back</title><g id="Layer_2" data-name="Layer 2"><g id="Layer_1-2" data-name="Layer 1"><path class="cls-1" d="M31.55,17.27a6.21,6.21,0,0,1-.38-.79c-.13-.27-.27-.53-.41-.79a15.28,15.28,0,0,0-2.08-2.93,16.87,16.87,0,0,0-8.87-5.2c-.6-.13-1.2-.27-1.81-.34A26.7,26.7,0,0,0,13.7,7L13,7.1V1.3a1.22,1.22,0,0,0-.39-.91A1.25,1.25,0,0,0,11.69,0a1.27,1.27,0,0,0-.92.39L.38,10.77a1.25,1.25,0,0,0-.38.91,1.24,1.24,0,0,0,.38.91L10.79,23A1.29,1.29,0,0,0,13,22.07V15.57A19.24,19.24,0,0,1,22.86,17c.77.33,1.54.69,2.28,1.1l1,.56c.38.21.74.45,1.12.67a6.08,6.08,0,0,1,1,.66,2.14,2.14,0,0,0,3.3-2.73Z"/></g></g></svg>