<svg xmlns="http://www.w3.org/2000/svg" xmlns:xlink="http://www.w3.org/1999/xlink" viewBox="0 0 90.01 176.01"><defs><style>.cls-1{fill:none;clip-rule:evenodd;}.cls-2{clip-path:url(#clip-path);}.cls-3{fill:#fff;fill-rule:evenodd;}</style><clipPath id="clip-path" transform="translate(-21.96 -16.82)"><path class="cls-1" d="M131.24,65.62a65.62,65.62,0,1,0-65.62,65.62,65.65,65.65,0,0,0,65.62-65.62Z"/></clipPath></defs><title>Asset 62</title><g id="Layer_2" data-name="Layer 2"><g id="Layer_1-2" data-name="Layer 1"><g class="cls-2"><path class="cls-3" d="M56.76,89.06l1-14.42a16.12,16.12,0,0,0,10.48,2.81,17.5,17.5,0,0,0,8-3l1,14.6Zm1.33-20h0l0-.35c-7.64-5.88-12.63-18.47-12.63-27.89,0-13.08,9.46-24,21.49-24s21.49,10.95,21.49,24c0,9.36-5,22-12.65,27.87v.17h0c-2.76,2.35-5.46,3.66-8.07,3.91-2.89.28-6.11-.73-9.66-3.7Z" transform="translate(-21.96 -16.82)"/><path class="cls-3" d="M49.39,192.83l-10-59.31-1.23-9.69q-.39,2.49-.8,5l-1.79,10.5.86,9.5c.87,10.68,1.45,21.37,1.67,32.08a3.69,3.69,0,1,1-7.32,1l-2.53-10.43L25.94,161l-2.06-10.5L22,139.94l0-.47V139l0-.47,0-.47,1.34-11.27,1.48-11.25,1.57-11.24L28,93.08a7.28,7.28,0,0,1,6.8-6.23l23-5.24H76.09l23,5.24a7.29,7.29,0,0,1,6.81,6.23l1.62,11.23,1.57,11.24,1.48,11.25,1.34,11.27,0,.47,0,.47v.46l0,.47L110,150.47,108,161l-2.3,10.46-2.52,10.43a3.7,3.7,0,1,1-7.33-1c.2-10.71.77-21.4,1.64-32.08l.86-9.5-1.78-10.49c-.27-1.66-.54-3.32-.81-5l-1.23,9.67-10,59.31Z" transform="translate(-21.96 -16.82)"/></g></g></g></svg>