<svg xmlns="http://www.w3.org/2000/svg" viewBox="0 0 80.12 80"><defs><style>.cls-1{fill:#5aaf36;fill-rule:evenodd;}</style></defs><title>Success big</title><g id="Layer_2" data-name="Layer 2"><g id="Layer_1-2" data-name="Layer 1"><path class="cls-1" d="M0,40A40.06,40.06,0,1,1,40.06,80,40,40,0,0,1,0,40Zm71.1,0a31,31,0,1,0-31,31,31,31,0,0,0,31-31Z"/><path class="cls-1" d="M52.64,34.21a1.5,1.5,0,0,1,0,2.11L41.42,47.53l-2.11,2.11a1.5,1.5,0,0,1-2.11,0l-2.11-2.11-5.61-5.6a1.49,1.49,0,0,1,0-2.11l2.11-2.1a1.5,1.5,0,0,1,2.11,0l4.56,4.57L48.43,32.11a1.5,1.5,0,0,1,2.11,0l2.11,2.11Z"/></g></g></svg>